<svg width="254" height="254" viewBox="0 0 254 254" fill="none" xmlns="http://www.w3.org/2000/svg">
<path d="M238.963 171.32V176.355C238.963 192.848 228.081 209.319 206.417 221.906C162.82 247.227 91.948 247.227 48.0907 221.906C26.0209 209.16 14.9917 192.442 15.0368 175.734V170.699C14.9804 187.395 26.0096 204.126 48.0794 216.871C91.9367 242.192 162.808 242.192 206.383 216.871C228.036 204.329 238.907 187.813 238.963 171.32Z" fill="#CEE3F6"/>
<mask id="mask0_230_3448" style="mask-type:luminance" maskUnits="userSpaceOnUse" x="15" y="170" width="224" height="71">
<path d="M238.963 171.32V176.355C238.963 192.848 228.081 209.319 206.417 221.906C162.82 247.227 91.948 247.227 48.0907 221.906C26.0209 209.16 14.9917 192.442 15.0368 175.734V170.699C14.9804 187.395 26.0096 204.126 48.0794 216.871C91.9367 242.192 162.808 242.192 206.383 216.871C228.036 204.329 238.907 187.813 238.963 171.32Z" fill="white"/>
</mask>
<g mask="url(#mask0_230_3448)">
<path d="M238.963 171.32V176.355C238.963 192.848 228.081 209.319 206.417 221.906C162.82 247.227 91.948 247.227 48.0907 221.906C26.0209 209.16 14.9917 192.442 15.0368 175.734V170.699C14.9804 187.395 26.0096 204.126 48.0794 216.871C91.9367 242.192 162.808 242.192 206.383 216.871C228.036 204.329 238.907 187.813 238.963 171.32Z" fill="url(#paint0_linear_230_3448)"/>
</g>
<path d="M205.92 125.16C249.778 150.481 250.003 191.527 206.406 216.871C162.808 242.214 91.959 242.192 48.1016 216.871C4.24429 191.55 4.00723 150.492 47.5823 125.171C91.1574 99.8502 162.063 99.8389 205.92 125.16Z" fill="#F3F2FA"/>
<path d="M114.018 61.468C111.941 56.5686 99.7824 58.7022 100.302 67.2254C100.821 75.7485 97.8295 86.9245 93.043 87.6244C95.3233 90.3541 98.3845 92.3202 101.815 93.2587C105.246 94.1971 108.882 94.0627 112.234 92.8737C121.739 89.8709 114.018 61.468 114.018 61.468Z" fill="#3C2623"/>
<path d="M96.1587 114.526V121.717C97.6996 120.934 99.4033 120.527 101.131 120.527C102.86 120.527 104.563 120.934 106.104 121.717V114.526C104.564 113.741 102.86 113.332 101.131 113.332C99.4028 113.332 97.6988 113.741 96.1587 114.526Z" fill="#333333"/>
<path d="M42.0513 145.762L42.0738 152.953L96.1702 121.717L96.1476 114.526L42.0513 145.762Z" fill="#333333"/>
<path d="M40.0077 153.879C40.0077 152.818 40.685 153.755 42.0735 152.953V145.762C41.4979 146.018 41.002 146.425 40.6384 146.94C40.2748 147.454 40.0569 148.058 40.0077 148.686C39.9851 150.842 39.9964 151.723 40.0077 153.879Z" fill="#333333"/>
<path d="M39.9854 148.663V158.609C39.9854 159.647 40.6627 158.677 42.0174 159.467V151.565C41.4505 151.306 40.963 150.901 40.6057 150.391C40.2484 149.881 40.0342 149.284 39.9854 148.663Z" fill="#333333"/>
<path d="M106.093 114.515L106.115 121.717L211.339 182.79L211.317 175.599L106.093 114.515Z" fill="#333333"/>
<path d="M211.339 182.79C211.929 183.193 212.418 183.726 212.769 184.349C213.119 184.971 213.321 185.666 213.36 186.38V178.477C213.3 177.868 213.08 177.286 212.723 176.788C212.367 176.291 211.885 175.896 211.328 175.644C211.317 177.755 211.328 180.622 211.339 182.79Z" fill="#333333"/>
<path d="M213.36 186.402V178.5C213.304 179.123 213.084 179.721 212.721 180.231C212.358 180.741 211.865 181.145 211.294 181.401V189.303C211.865 189.047 212.358 188.643 212.721 188.133C213.084 187.623 213.304 187.026 213.36 186.402Z" fill="#333333"/>
<path d="M42.0171 151.519L42.051 159.467L147.263 220.54L147.23 212.592L42.0171 151.519Z" fill="#333333"/>
<path d="M157.175 212.592L157.209 220.54L211.317 189.303L211.283 181.356L157.175 212.592Z" fill="#333333"/>
<path d="M147.229 212.592V220.495C148.771 221.274 150.475 221.679 152.202 221.679C153.93 221.679 155.633 221.274 157.175 220.495V212.592C155.633 213.371 153.93 213.777 152.202 213.777C150.475 213.777 148.771 213.371 147.229 212.592Z" fill="#333333"/>
<path d="M216.95 186.425C216.882 187.203 216.608 187.949 216.155 188.586C215.703 189.223 215.088 189.728 214.376 190.048L158.473 222.312C156.55 223.29 154.422 223.799 152.264 223.799C150.107 223.799 147.979 223.29 146.056 222.312L38.9804 160.167C38.2776 159.849 37.672 159.35 37.2256 158.722C36.7792 158.093 36.5082 157.356 36.4404 156.588V148.686C36.5082 149.454 36.7792 150.19 37.2256 150.819C37.672 151.448 38.2776 151.947 38.9804 152.264L146.056 214.353C147.979 215.331 150.107 215.841 152.264 215.841C154.422 215.841 156.55 215.331 158.473 214.353L214.365 182.09C215.078 181.769 215.693 181.264 216.147 180.628C216.602 179.991 216.879 179.245 216.95 178.466V186.425Z" fill="url(#paint1_linear_230_3448)"/>
<path d="M158.451 214.365C156.527 215.342 154.4 215.852 152.242 215.852C150.084 215.852 147.957 215.342 146.033 214.365L38.958 152.276C35.5713 150.289 35.5713 147.049 38.958 145.074L94.8831 112.742C96.8084 111.77 98.9351 111.263 101.092 111.263C103.249 111.263 105.376 111.77 107.301 112.742L214.365 174.899C217.751 176.874 217.751 180.114 214.365 182.101L158.451 214.365Z" fill="#AB94F6"/>
<path d="M211.283 181.356C214.026 179.776 214.037 177.179 211.283 175.599L106.115 114.526C104.573 113.741 102.867 113.331 101.137 113.331C99.4065 113.331 97.7006 113.741 96.1585 114.526L42.0509 145.762C39.3077 147.343 39.2964 149.939 42.0509 151.519L147.263 212.592C148.805 213.371 150.509 213.777 152.236 213.777C153.964 213.777 155.667 213.371 157.209 212.592L211.283 181.356Z" fill="#323B54"/>
<path d="M54.6384 165.676L53.2047 164.84L52.9337 164.694L51.4888 163.87V164.174L52.9337 164.998L53.2047 165.156L54.6384 165.981V165.676Z" fill="#866DDE"/>
<path d="M53.2045 164.84V163.181L52.9336 163.023V164.694L53.2045 164.84Z" fill="#866DDE"/>
<path d="M55.3158 167.663C55.3158 168.216 54.932 168.442 54.4578 168.171L51.6808 166.579C51.4282 166.414 51.2178 166.193 51.0668 165.932C50.9158 165.671 50.8283 165.378 50.8115 165.077V162.187C50.8115 161.634 51.2066 161.409 51.6808 161.679L54.4578 163.271C54.7151 163.441 54.9274 163.67 55.0769 163.939C55.2263 164.208 55.3082 164.51 55.3158 164.818V167.663ZM52.9338 163.023V164.694L51.4889 163.87V164.174L52.9338 164.998V166.669L53.2048 166.827V165.156L54.6385 165.981V165.676L53.2048 164.818V163.158L52.9338 163V163.023Z" fill="#967DE8"/>
<path d="M52.9336 166.669L53.2045 166.827V165.156L52.9336 164.998V166.669Z" fill="#866DDE"/>
<path d="M55.8912 164.445V167.335C55.9013 167.444 55.8826 167.553 55.837 167.652C55.7914 167.751 55.7206 167.837 55.6315 167.9L55.0558 168.227C55.1466 168.166 55.2188 168.081 55.2646 167.981C55.3104 167.882 55.328 167.771 55.3154 167.663V164.818C55.3008 164.518 55.2154 164.225 55.0663 163.964C54.9172 163.703 54.7086 163.481 54.4575 163.316L51.6804 161.725C51.5928 161.662 51.4903 161.624 51.3832 161.614C51.2761 161.604 51.1684 161.623 51.0708 161.668L51.6465 161.341C51.7441 161.296 51.8519 161.277 51.9589 161.287C52.066 161.297 52.1685 161.335 52.2561 161.397L55.0219 162.989C55.2687 163.149 55.4754 163.363 55.6261 163.616C55.7768 163.868 55.8675 164.152 55.8912 164.445Z" fill="#A88FF7"/>
<path d="M70.3412 176.332C70.3412 176.886 69.9461 177.111 69.4719 176.84L66.7062 175.249C66.4523 175.086 66.241 174.864 66.0898 174.603C65.9386 174.342 65.8519 174.049 65.8369 173.747V170.857C65.8369 170.304 66.2207 170.078 66.7062 170.349L69.4719 171.941C69.7246 172.105 69.9349 172.327 70.0859 172.588C70.2369 172.849 70.3244 173.141 70.3412 173.442V176.332Z" fill="#967DE8"/>
<path d="M68.2186 171.851V175.497L67.959 175.339V171.693L68.2186 171.851Z" fill="#866DDE"/>
<path d="M70.9057 173.115V176.005C70.9195 176.113 70.9036 176.222 70.8599 176.322C70.8161 176.421 70.7461 176.507 70.6574 176.57L70.0817 176.897C70.1716 176.835 70.2431 176.75 70.2888 176.65C70.3345 176.551 70.3526 176.441 70.3413 176.332V173.442C70.3245 173.142 70.237 172.849 70.086 172.588C69.935 172.327 69.7247 172.105 69.4721 171.941L66.7063 170.349C66.6187 170.287 66.5161 170.249 66.4091 170.239C66.302 170.229 66.1942 170.248 66.0967 170.293L66.6611 169.966C66.7587 169.92 66.8665 169.902 66.9735 169.912C67.0806 169.922 67.1831 169.96 67.2707 170.022L70.0478 171.591C70.302 171.758 70.5124 171.984 70.6617 172.249C70.8109 172.514 70.8946 172.811 70.9057 173.115Z" fill="#A88FF7"/>
<path d="M101.769 192.148V192.769C101.78 192.878 101.761 192.987 101.715 193.086C101.67 193.185 101.599 193.271 101.51 193.334L100.934 193.661C101.023 193.598 101.094 193.513 101.14 193.414C101.185 193.314 101.204 193.205 101.194 193.096V192.476C101.178 192.174 101.091 191.881 100.94 191.62C100.788 191.359 100.578 191.138 100.324 190.974L92.1174 186.267C92.0247 186.213 91.9196 186.185 91.8126 186.185C91.7056 186.185 91.6005 186.213 91.5078 186.267L92.0835 185.939C92.1791 185.894 92.2852 185.875 92.3905 185.885C92.4958 185.895 92.5965 185.933 92.6819 185.996L100.9 190.692C101.147 190.852 101.354 191.066 101.504 191.319C101.655 191.571 101.746 191.855 101.769 192.148Z" fill="#A88FF7"/>
<path d="M101.194 192.476C101.178 192.174 101.091 191.881 100.939 191.62C100.788 191.359 100.578 191.138 100.324 190.974L92.1173 186.267C91.6432 185.996 91.248 186.267 91.248 186.775V187.396C91.2649 187.696 91.3523 187.989 91.5033 188.25C91.6543 188.511 91.8647 188.733 92.1173 188.897L100.324 193.604C100.81 193.875 101.194 193.604 101.194 193.096V192.476Z" fill="#967DE8"/>
<path d="M138.74 218.067L138.729 210.131L139.248 210.436L139.26 218.372L138.74 218.067Z" fill="#BBA8FC"/>
<path d="M45.5958 164.005L45.5845 156.069L46.1038 156.374L46.115 164.31L45.5958 164.005Z" fill="#BBA8FC"/>
<path d="M40.9897 148.652C41.0529 149.089 41.2273 149.502 41.4961 149.852C41.765 150.202 42.1193 150.477 42.525 150.65L111.297 190.568L113.103 191.618L115.361 192.938L127.779 200.129L130.037 201.439L130.307 201.597L141.246 207.941L147.76 211.723C149.13 212.454 150.666 212.82 152.219 212.784C153.79 212.822 155.345 212.457 156.735 211.723L210.831 180.487C211.243 180.311 211.603 180.034 211.878 179.68C212.153 179.326 212.332 178.909 212.4 178.466C212.337 178.029 212.163 177.616 211.894 177.266C211.625 176.916 211.271 176.641 210.865 176.468L105.653 115.395C104.263 114.705 102.733 114.346 101.182 114.346C99.6309 114.346 98.1009 114.705 96.7117 115.395L82.4087 123.602C81.9695 123.789 81.5854 124.086 81.2929 124.463C81.0005 124.84 80.8095 125.286 80.7379 125.758C80.6711 126.587 80.3878 127.385 79.9163 128.07C79.4449 128.756 78.8017 129.305 78.0512 129.664L67.3606 135.828C65.5972 136.779 63.6176 137.257 61.6145 137.216C59.9643 137.188 58.3335 137.576 56.8732 138.345L42.5589 146.631C42.147 146.807 41.7867 147.084 41.5121 147.438C41.2375 147.792 41.0577 148.21 40.9897 148.652Z" fill="#90CAEF"/>
<path d="M159.2 160.354C159.253 150.597 145.594 142.613 128.692 142.522C111.79 142.43 98.0458 150.266 97.993 160.023C97.9403 169.78 111.599 177.764 128.501 177.856C145.403 177.947 159.148 170.111 159.2 160.354Z" fill="#38749C"/>
<path d="M150.142 151.102C138.154 144.182 118.782 144.148 106.872 151.023C101.679 154.026 98.7666 157.796 98.1119 161.758C97.2878 156.712 100.2 151.508 106.872 147.659C118.782 140.784 138.154 140.818 150.142 147.738C156.916 151.644 159.873 156.904 159.038 161.984C158.406 158.044 155.448 154.15 150.142 151.102Z" fill="#669FC4"/>
<path d="M132.52 61.8179L134.315 60.7793C133.946 60.5103 133.511 60.3453 133.057 60.3016C132.602 60.2579 132.144 60.3371 131.73 60.531L129.935 61.5696C130.349 61.3781 130.807 61.3001 131.261 61.3438C131.716 61.3874 132.15 61.5511 132.52 61.8179Z" fill="url(#paint2_linear_230_3448)"/>
<path d="M132.521 61.818L134.315 60.7794C135.371 61.4661 136.25 62.3926 136.88 63.4834C137.509 64.5741 137.872 65.7983 137.939 67.056C137.984 67.5029 137.909 67.9535 137.722 68.362C137.536 68.7705 137.245 69.1223 136.878 69.3816L135.083 70.4201C135.451 70.1625 135.744 69.811 135.931 69.4021C136.117 68.9931 136.191 68.5417 136.144 68.0946C136.078 66.8367 135.716 65.6122 135.086 64.5213C134.456 63.4304 133.577 62.504 132.521 61.818Z" fill="url(#paint3_linear_230_3448)"/>
<path d="M132.52 61.8179C133.577 62.5039 134.456 63.4303 135.086 64.5212C135.716 65.6121 136.078 66.8366 136.144 68.0945C136.144 70.3523 134.507 71.3344 132.498 70.1717C131.443 69.4837 130.566 68.5569 129.936 67.4664C129.306 66.3759 128.943 65.1524 128.874 63.8951C128.885 61.5921 130.522 60.6664 132.52 61.8179Z" fill="url(#paint4_linear_230_3448)"/>
<path d="M132.362 62.992C130.872 62.134 129.664 62.8226 129.653 64.5273C129.703 65.4609 129.972 66.3695 130.439 67.1796C130.906 67.9896 131.557 68.6782 132.34 69.1896C133.83 70.0475 135.038 69.3589 135.049 67.643C134.998 66.7112 134.728 65.8044 134.262 64.9963C133.795 64.1882 133.144 63.5016 132.362 62.992Z" fill="url(#paint5_linear_230_3448)"/>
<path d="M133.13 58.8377L130.748 57.4604C131.104 58.7996 131.313 60.1738 131.369 61.5583C132.218 61.9117 133.016 62.3788 133.74 62.9468C133.683 61.5593 133.479 60.1818 133.13 58.8377Z" fill="#919BBD"/>
<path d="M131.12 55.88L128.693 54.4915C129.219 54.8166 129.669 55.2492 130.016 55.7609C130.362 56.2726 130.596 56.8518 130.703 57.4604L133.085 58.8377C132.979 58.2358 132.75 57.6622 132.412 57.1532C132.074 56.6442 131.634 56.2106 131.12 55.88Z" fill="#919BBD"/>
<path d="M127.677 53.8029C128.806 53.4514 130.011 53.424 131.154 53.7238C132.023 54.0075 132.798 54.5235 133.395 55.216C133.992 55.9084 134.389 56.7509 134.541 57.6524C134.884 58.9102 135.096 60.2003 135.173 61.5019C135.173 61.5809 135.241 61.5696 135.173 61.6599C134.617 61.9742 134.133 62.401 133.751 62.913C133.687 61.5373 133.483 60.1717 133.141 58.8377C133.053 58.2316 132.834 57.6521 132.498 57.1398C132.162 56.6275 131.718 56.1949 131.198 55.8722C130.677 55.5495 130.092 55.3446 129.484 55.2719C128.876 55.1991 128.259 55.2603 127.677 55.451C127.666 54.9317 127.666 54.3673 127.677 53.8029Z" fill="#A5B0D6"/>
<path d="M131.109 62.2243C128.942 60.9712 127.181 61.9759 127.169 64.4821C127.24 65.8392 127.631 67.1603 128.31 68.3375C128.988 69.5147 129.936 70.5146 131.075 71.2554C133.243 72.5085 135.015 71.5038 135.015 68.9976C134.946 67.6401 134.556 66.3183 133.877 65.1408C133.198 63.9634 132.25 62.9638 131.109 62.2243Z" fill="#5B545F"/>
<path d="M129.393 61.3212C129.841 61.1168 130.336 61.0352 130.825 61.0848C131.315 61.1344 131.783 61.3134 132.181 61.6035C133.323 62.3423 134.272 63.3417 134.951 64.5193C135.63 65.6969 136.02 67.0191 136.087 68.3768C136.136 68.8585 136.057 69.3445 135.859 69.7863C135.661 70.2281 135.351 70.6101 134.959 70.8942L133.83 71.5151C134.223 71.2326 134.535 70.8508 134.734 70.4086C134.932 69.9664 135.01 69.4796 134.959 68.9977C134.89 67.6402 134.5 66.3184 133.821 65.1409C133.142 63.9634 132.193 62.9638 131.053 62.2243C130.653 61.9329 130.182 61.7541 129.69 61.7064C129.197 61.6588 128.701 61.7441 128.253 61.9534L129.393 61.3212Z" fill="url(#paint6_linear_230_3448)"/>
<path d="M111.094 74.6647C109.514 75.6355 108.125 76.8321 107.944 80.9187C107.764 85.0053 106.703 89.2725 109.265 94.2396C111.828 99.2067 114.548 100.516 117.766 94.3412C120.983 88.1662 120.351 80.6139 120.351 80.6139L111.094 74.6647Z" fill="#202459"/>
<path d="M151.147 122.213C150.831 123.726 150.108 124.81 148.731 124.934C146.71 125.103 145.119 124.708 141.213 120.814C139.948 119.549 136.81 113.069 133.92 105.969C130.104 96.599 126.74 86.1794 128.75 85.3666C132.272 83.9554 135.376 86.4954 137.781 90.4578C144.374 101.036 149.07 110.428 149.962 112.053L150.041 112.2C150.808 114.661 151.756 119.256 151.147 122.213Z" fill="#633EE8"/>
<path d="M178.161 92.9302C177.732 93.2576 172.517 99.3423 172.517 99.3423C172.517 99.3423 173.849 100.55 173.849 101.16C173.835 101.446 173.835 101.732 173.849 102.018C174.312 102.502 174.591 103.133 174.639 103.801V104.761C174.639 104.761 175.768 106.195 175.102 106.917C174.733 107.292 174.332 107.636 173.905 107.944C172.429 109.113 170.841 110.134 169.164 110.992C168.126 111.32 167.29 111.67 167.29 111.67C167.29 111.67 156.995 121.694 153.552 123.23C150.108 124.765 147.241 124.358 146.564 123.929C145.886 123.5 144.983 120.159 145.299 118.511C145.585 117.394 146.179 116.381 147.015 115.587C148.347 113.95 148.889 112.573 150.933 112.302C152.976 112.031 160.889 108.102 162.289 106.872C163.689 105.641 164.739 100.505 165.337 99.9857C165.936 99.4665 168.148 99.6132 168.622 99.3423C169.096 99.0713 175.825 91.5078 177.258 91.2481C178.692 90.9885 178.59 92.5689 178.161 92.9302Z" fill="#FFA399"/>
<path d="M166.94 112.008L166.861 112.618C159.422 120.881 153.247 124.031 150.357 124.697C149.823 124.825 149.279 124.904 148.731 124.934C146.767 125.036 145.469 124.37 144.972 123.241C144.475 122.112 145.04 117.709 146.101 115.339C146.25 114.995 146.432 114.666 146.643 114.356C147.64 113.423 148.784 112.66 150.029 112.099C154.263 109.784 160.923 106.894 161.318 106.736C161.493 106.68 161.679 106.667 161.86 106.698C162.041 106.73 162.211 106.805 162.357 106.917C162.153 107.195 161.914 107.445 161.646 107.662C161.251 107.967 160.743 108.994 163.249 111.489L163.384 111.591L164.705 112.471L165.608 113.07L166.94 112.008Z" fill="#6E46FB"/>
<path d="M166.94 112.008L166.861 112.618C159.422 120.881 153.247 124.031 150.357 124.697C149.823 124.825 149.279 124.904 148.731 124.934C146.71 125.104 145.118 124.708 141.213 120.814C139.948 119.549 136.81 113.07 133.92 105.969C135.342 99.3536 137.611 94.5445 138.763 96.4749C141.314 100.776 145.604 112.279 146.101 115.316C146.135 115.525 146.135 115.739 146.101 115.948C145.762 117.303 145.864 120.565 148.573 120.261C149.906 119.996 151.178 119.483 152.321 118.748C156.205 116.711 159.88 114.299 163.294 111.546L164.614 112.426L165.518 113.024L166.94 112.008Z" fill="#633EE8"/>
<path d="M175.102 106.917C174.732 107.292 174.332 107.636 173.905 107.944L173.025 107.03C172.449 106.59 170.406 107.572 169.638 107.414C168.87 107.256 168.656 106.138 168.656 106.138C168.656 106.138 167.606 106.669 167.346 106.048C167.192 105.682 167.067 105.305 166.974 104.919C166.76 104.807 166.587 104.629 166.481 104.412C166.376 104.194 166.342 103.949 166.387 103.711C166.5 103.057 166.75 102.434 167.121 101.882C168.031 100.749 169 99.6641 170.022 98.631C170.394 98.4504 172.46 99.3987 172.46 99.3987C172.46 99.3987 173.849 100.55 173.849 101.16C173.834 101.446 173.834 101.732 173.849 102.018C174.312 102.502 174.591 103.133 174.639 103.801V104.761C174.639 104.761 175.711 106.195 175.102 106.917Z" fill="#FFA399"/>
<path d="M168.374 95.6734C168.758 94.9622 168.927 94.2961 169.333 94.2736C169.668 94.3792 169.964 94.5832 170.181 94.859C170.399 95.1349 170.528 95.4698 170.553 95.8201C170.326 96.5036 169.939 97.1229 169.424 97.6264C168.713 98.3092 168.077 99.0661 167.527 99.8841C167.448 100.291 167.696 100.607 167.809 102.142C167.922 103.677 167.934 105.19 166.805 106.149C165.676 107.109 164.965 107.628 164.208 107.527C163.452 107.425 163.079 105.698 163.158 105.63C163.237 105.562 164.445 99.7374 164.694 99.3536C164.942 98.9697 168.374 95.6734 168.374 95.6734Z" fill="#FFA399"/>
<path d="M146.281 174.673C145.344 186.38 143.832 197.928 142.895 199.328C141.382 201.586 132.351 203.279 129.709 199.26C127.937 196.585 127.147 186.639 126.526 177.811C128.86 177.921 131.198 177.871 133.525 177.665C137.901 177.297 142.198 176.289 146.281 174.673Z" fill="#639CC2"/>
<path d="M146.281 174.673C142.187 176.288 137.878 177.292 133.491 177.653C131.164 177.86 128.826 177.909 126.492 177.8C126.176 173.341 125.905 169.164 125.578 166.342C124.866 160.347 126.594 148.709 127.632 142.533C128.05 140.05 128.366 138.447 128.366 138.447L142.579 132.735C144.024 137.25 145.514 140.219 146.383 145.875C146.864 149.324 147.105 152.801 147.106 156.283C147.162 161.205 146.812 167.967 146.281 174.673Z" fill="#323342"/>
<path d="M127.768 200.129L130.025 201.439L130.296 201.597L141.235 207.941C141.992 203.832 142.771 200.039 143.493 197.522C145.898 188.671 142.003 190.534 141.393 187.96C141.393 187.96 135.5 185.138 131.843 187.068C130.896 187.554 130.147 188.351 129.721 189.326C129.328 190.301 129.041 191.315 128.863 192.351C128.422 194.383 128.072 197.081 127.768 200.129Z" fill="#639CC2"/>
<path d="M107.628 172.991C107.832 174.244 108.057 175.497 108.294 176.739L108.532 177.981C108.656 178.635 108.791 179.29 108.915 179.934C109.096 180.837 109.288 181.717 109.469 182.575C109.83 184.291 110.202 185.962 110.53 187.362C110.665 187.904 110.778 188.423 110.902 188.92C111.026 189.416 111.173 190.048 111.297 190.568L113.104 191.618L115.361 192.938L127.779 200.129L130.037 201.439L130.308 201.597C130.624 199.136 130.906 195.84 131.279 191.437C131.392 190.127 131.583 188.649 131.821 187.057C132.249 184.167 132.848 180.916 133.514 177.642C126.225 178.353 118.87 177.443 111.975 174.978C110.482 174.416 109.03 173.752 107.628 172.991Z" fill="#6AA5CC"/>
<path d="M138.086 158.383C137.329 160.878 135.196 169.299 133.491 177.653C126.209 178.361 118.861 177.447 111.975 174.978C110.478 174.429 109.025 173.769 107.628 173.002C107.026 169.554 106.612 166.076 106.387 162.583C106.211 157.454 106.62 152.322 107.606 147.286C108.836 140.671 110.688 135.162 111.918 133.265C112.234 132.78 113.047 132.543 114.176 132.52C120.475 132.328 137.07 138.357 137.07 138.357C137.07 140.118 137.07 141.743 137.171 143.279C137.578 150.402 139.09 155.064 138.086 158.383Z" fill="#363747"/>
<path d="M111.975 174.978C110.478 174.429 109.025 173.769 107.628 173.002C107.026 169.554 106.612 166.076 106.387 162.583C106.211 157.454 106.62 152.322 107.606 147.286C108.836 140.671 110.688 135.162 111.918 133.265C112.234 132.78 113.047 132.543 114.176 132.52C112.155 137.036 110.247 146.383 110.247 154.082C110.214 160.178 109.841 162.56 111.975 174.978Z" fill="#333442"/>
<path d="M113.104 191.618L115.361 192.938L127.779 200.129L130.037 201.439C129.887 198.401 129.487 195.38 128.84 192.408C128.84 192.408 117.393 188.84 114.458 188.231C114.018 188.141 113.77 188.118 113.77 188.174C113.77 188.231 113.476 189.653 113.104 191.618Z" fill="#6AA5CC"/>
<path d="M107.628 172.991C107.832 174.244 108.057 175.497 108.294 176.739L108.532 177.981C108.656 178.635 108.791 179.29 108.915 179.934C109.096 180.837 109.288 181.717 109.469 182.575C109.83 184.291 110.202 185.962 110.53 187.362C110.665 187.904 110.778 188.423 110.902 188.92C111.026 189.416 111.173 190.048 111.297 190.568L113.104 191.618L115.361 192.938C115.023 191.256 114.707 189.665 114.413 188.175C113.352 182.756 112.55 178.466 111.952 174.967C110.467 174.408 109.023 173.748 107.628 172.991Z" fill="#669FC4"/>
<path d="M145.062 116.276C144.644 118.082 144.17 120.272 143.752 123.218C142.24 133.751 143.944 134.507 141.867 138.255C139.79 142.003 131.369 145.491 121.66 144.543C109.908 142.285 110.078 138.379 109.875 135.512C109.276 127.023 107.064 122.123 104.411 116.163C103.72 114.484 103.183 112.746 102.808 110.97C101.677 105.84 101.072 100.609 101.001 95.3572C101.137 94.2283 107.854 89.5773 112.527 87.963C117.201 86.3487 123.218 84.2377 124.403 83.9555C127.022 83.3572 130.691 85.2311 132.768 86.5067C134.846 87.7824 141.495 96.3507 144.543 104.174C146.688 109.593 146.112 111.613 145.062 116.276Z" fill="#6E46FB"/>
<path d="M145.062 116.276C144.645 118.082 144.171 120.272 143.753 123.218C142.24 133.751 143.945 134.507 141.868 138.255C139.791 142.003 131.369 145.491 121.661 144.543C109.909 142.285 110.078 138.379 109.875 135.512C109.277 127.023 107.064 122.123 104.411 116.163C103.72 114.484 103.184 112.746 102.808 110.97C102.964 110.827 103.13 110.695 103.305 110.575C104.795 109.66 111.094 127.61 117.721 127.632C126.842 127.632 131.38 122.891 133.525 121.785C135.67 120.678 140.818 121.92 145.062 116.276Z" fill="#6E46FB"/>
<path d="M119.391 96.9038C127.316 108.373 132.52 112.889 132.52 112.889C132.52 112.889 136.223 101.961 131.278 91.5303C128.411 85.4795 123.105 87.7598 123.105 87.7598L119.391 96.9038Z" fill="#FFA399"/>
<path d="M129.709 81.6864C129.009 81.946 128.581 86.2019 128.874 87.1276C129.3 88.4729 129.651 89.841 129.924 91.2255C130.929 96.0459 125.273 96.9941 121.13 96.4974C116.987 96.0007 114.097 91.361 114.097 91.361L111.986 88.0533C111.986 88.0533 115.44 84.8134 115.655 83.7635C115.869 82.7137 114.232 75.4549 113.939 73.0052C113.645 70.5555 116.276 65.0579 116.276 65.0579L129.709 81.6864Z" fill="#FFA399"/>
<path d="M129.258 88.3808C129.427 90.4579 129.743 90.5256 128.513 92.7157C127.282 94.9057 126.255 95.1767 126.255 95.1767L126.616 96.6104L129.743 99.5568C130.677 97.9118 131.236 96.0807 131.38 94.1945C131.308 91.6322 130.427 89.1583 128.863 87.1277C128.947 87.5587 129.08 87.979 129.258 88.3808Z" fill="#FFA399"/>
<path d="M126.266 95.1766C124.113 95.0848 121.979 94.7322 119.911 94.1267C119.843 94.5896 119.787 95.0411 119.708 95.4701L119.132 98.3375C121.017 100.595 125.634 100.753 125.634 100.753L126.628 96.6103L126.266 95.1766Z" fill="#FFA399"/>
<path d="M116.795 69.6863C117.009 71.12 120.283 80.9752 120.283 80.9752C120.283 80.9752 126.424 85.6601 128.795 85.8746C131.166 86.0891 133.119 86.3826 134.677 85.3101C136.234 84.2377 136.483 77.1031 136.663 72.0118C136.844 66.9205 135.749 62.1341 133.39 59.7747C131.03 57.4153 125.736 56.7493 124.957 56.7041C124.178 56.6589 116.795 69.6863 116.795 69.6863Z" fill="#FFA399"/>
<path d="M128.693 59.0071C128.355 59.4586 120.69 67.2705 120.69 67.2705L118.432 70.7701C118.432 70.7701 120.543 74.5632 120.543 76.9225C120.543 79.2819 118.499 78.0514 118.499 78.0514L116.479 81.3478C116.479 81.3478 111.647 78.3901 109.999 74.7438C108.351 71.0975 107.967 64.1548 109.502 59.6167C111.038 55.0785 117.653 51.6016 123.23 52.753C128.806 53.9045 133.525 57.4492 134.236 58.5104C134.672 59.3871 134.81 60.3815 134.631 61.3439C133.816 60.3954 132.813 59.6265 131.685 59.0861C130.703 58.8614 129.686 58.8345 128.693 59.0071Z" fill="#452A26"/>
<path d="M115.564 71.4699C114.695 70.8039 112.686 70.9845 112.934 73.7277C113.183 76.4709 115.079 77.7465 116.84 78.6271C118.601 79.5076 118.59 77.374 118.421 76.6063C117.567 74.8414 116.613 73.1265 115.564 71.4699Z" fill="#FFA399"/>
<path d="M114.932 71.8425C112.764 70.5894 111.003 71.5941 111.003 74.1002C111.074 75.4573 111.465 76.7784 112.144 77.9556C112.822 79.1329 113.77 80.1327 114.909 80.8736C117.077 82.1266 118.838 81.1219 118.849 78.6158C118.774 77.2586 118.38 75.9381 117.699 74.7614C117.019 73.5847 116.071 72.5847 114.932 71.8425Z" fill="#5B545F"/>
<path d="M113.216 70.9507C113.665 70.7413 114.161 70.656 114.653 70.7037C115.146 70.7513 115.616 70.9302 116.016 71.2216C117.156 71.9611 118.105 72.9606 118.784 74.1381C119.463 75.3156 119.853 76.6374 119.922 77.9949C119.972 78.4767 119.894 78.9632 119.695 79.4052C119.497 79.8471 119.186 80.229 118.793 80.5123L117.664 81.1332C118.06 80.8524 118.373 80.4709 118.571 80.0282C118.77 79.5856 118.846 79.098 118.793 78.6158C118.718 77.2586 118.324 75.9381 117.643 74.7614C116.963 73.5847 116.015 72.5847 114.876 71.8425C114.478 71.5509 114.009 71.3719 113.519 71.3242C113.028 71.2765 112.534 71.362 112.087 71.5715L113.216 70.9507Z" fill="url(#paint7_linear_230_3448)"/>
<path d="M112.799 73.3778L114.593 72.3392C114.225 72.0694 113.791 71.9031 113.336 71.8574C112.882 71.8118 112.423 71.8885 112.008 72.0795L110.213 73.1181C110.628 72.9259 111.087 72.8485 111.541 72.8942C111.996 72.9399 112.43 73.1069 112.799 73.3778Z" fill="#BFC0E3"/>
<path d="M112.798 73.3778L114.593 72.3392C115.649 73.0235 116.528 73.9479 117.157 75.0368C117.787 76.1258 118.15 77.3484 118.217 78.6046C118.258 79.0526 118.181 79.5036 117.995 79.9132C117.809 80.3229 117.52 80.6772 117.156 80.9414L115.361 81.9799C115.728 81.7215 116.02 81.3699 116.207 80.9611C116.393 80.5524 116.468 80.1014 116.422 79.6544C116.363 78.395 116.003 77.1681 115.372 76.0762C114.742 74.9843 113.859 74.0591 112.798 73.3778Z" fill="url(#paint8_linear_230_3448)"/>
<path d="M112.799 73.3777C113.86 74.059 114.742 74.9842 115.373 76.0761C116.003 77.168 116.363 78.3949 116.422 79.6544C116.422 81.9121 114.785 82.883 112.776 81.7315C111.721 81.0435 110.844 80.1167 110.214 79.0262C109.585 77.9357 109.221 76.7122 109.152 75.4549C109.164 73.1068 110.789 72.1698 112.799 73.3777Z" fill="url(#paint9_linear_230_3448)"/>
<path d="M112.64 74.5066C111.15 73.6487 109.942 74.3373 109.931 76.0419C109.98 76.9742 110.249 77.8816 110.716 78.69C111.183 79.4983 111.835 80.1847 112.618 80.6929C114.108 81.5509 115.316 80.8623 115.316 79.1577C115.269 78.2262 115.002 77.3191 114.537 76.5106C114.072 75.7022 113.422 75.0155 112.64 74.5066Z" fill="#EDEAFB"/>
<path d="M128.784 52.3465C129.12 52.4437 129.443 52.5841 129.743 52.7642L132.08 54.1866C131.777 54.0107 131.455 53.8705 131.12 53.7689C130.127 53.5553 129.101 53.5452 128.104 53.7392C127.106 53.9332 126.159 54.3274 125.318 54.8978L122.936 53.5206C123.78 52.9382 124.734 52.5337 125.739 52.3318C126.744 52.13 127.78 52.135 128.784 52.3465Z" fill="url(#paint10_linear_230_3448)"/>
<path d="M125.352 54.8188L122.97 53.4415L120.012 55.1461L122.394 56.5234L125.352 54.8188Z" fill="#EEEBFC"/>
<path d="M122.394 56.5234L120.012 55.1461C118.763 55.8876 117.623 56.7995 116.626 57.8555C115.031 59.5141 113.716 61.4203 112.731 63.4999C111.778 65.481 111.174 67.6122 110.947 69.7991C110.835 71.2215 110.631 73.7615 110.631 73.3777L113.002 74.7549C113.002 75.1162 113.16 72.5762 113.273 71.1876C113.526 69.002 114.16 66.8776 115.147 64.911C116.124 62.8296 117.436 60.9227 119.03 59.2666C120.02 58.2018 121.152 57.2787 122.394 56.5234Z" fill="url(#paint11_linear_230_3448)"/>
<path d="M113.318 71.2103C113.554 69.0197 114.173 66.8876 115.147 64.9111C116.124 62.8297 117.435 60.9229 119.03 59.2667C120.029 58.2122 121.169 57.3005 122.417 56.5573L125.307 54.8189C126.148 54.2484 127.095 53.8542 128.092 53.6602C129.09 53.4662 130.116 53.4763 131.109 53.69C131.687 53.8666 132.224 54.1575 132.687 54.5453C133.151 54.9331 133.532 55.41 133.807 55.9477C131.832 54.2205 131.245 55.3946 130.026 55.2253C128.366 55.1522 126.723 55.5768 125.307 56.4445L122.349 58.1604C121.291 58.7727 120.325 59.5329 119.482 60.4181C116.813 63.1882 115.128 66.7575 114.684 70.5781C114.684 71.041 114.594 71.6393 114.549 72.2941C114.306 73.2633 113.765 74.132 113.002 74.7776C113.092 73.2762 113.205 72.5989 113.318 71.2103Z" fill="#A5B0D6"/>
<path d="M129.348 90.9659L125.962 90.8417C123.771 90.6498 121.446 88.9452 119.888 86.3939L116.693 80.6027L117.359 80.2415L120.543 86.0101C121.954 88.2679 124.099 89.916 126.007 90.0854L129.393 90.2095H129.788C130.263 90.2095 131.38 90.1418 131.516 89.8483L132.204 90.1757C131.866 90.8756 130.725 90.932 129.822 90.9772L129.348 90.9659Z" fill="#DEE0F1"/>
<path d="M128.885 90.7513C128.772 90.2885 130.217 89.4983 131.053 89.1709C131.888 88.8435 133.175 88.3355 133.502 89.2273C134.055 90.74 133.186 90.8755 132.306 91.1126C131.425 91.3496 128.998 91.2142 128.885 90.7513Z" fill="#DEE0F1"/>
<path d="M126.266 127.892C126.251 128.915 125.945 129.913 125.386 130.771C124.631 131.989 123.497 132.925 122.157 133.435C121.532 133.677 120.857 133.765 120.191 133.69C119.525 133.616 118.886 133.381 118.33 133.006C114.944 130.748 106.059 121.22 101.837 111.421C97.6152 101.623 99.3424 95.9556 102.515 93.8446C104.501 92.5012 107.166 91.8803 111.139 96.0233C111.76 96.7263 112.319 97.4817 112.81 98.2811C113.476 99.2971 114.232 100.539 115.068 101.973C117.326 106.014 119.945 111.331 122.078 116.129C124.471 121.57 126.289 126.436 126.266 127.892Z" fill="#6E46FB"/>
<path d="M122.033 116.095C120.306 123.896 117.743 129.845 115.7 125.341C112.708 118.714 112.878 102.458 112.81 98.2472C113.476 99.2632 114.232 100.505 115.068 101.939C117.292 105.98 119.899 111.297 122.033 116.095Z" fill="#633EE8"/>
<path d="M112.325 75.4436C112.945 74.8905 114.673 77.1482 114.673 77.1482C114.673 77.1482 117.337 82.454 117.653 82.9281C117.969 83.4023 121.548 87.6808 121.898 88.8435C122.247 90.0063 121.604 92.4673 121.694 93.0317C121.785 93.5961 123.952 103.519 124.731 106.973C125.51 110.428 126.334 125.51 125.623 127.429C124.912 129.348 122.812 133.198 118.85 131.166C114.887 129.134 115.96 120.125 116.276 118.59C116.592 117.054 115.734 109.559 115.7 107.143C115.666 104.727 116.14 94.5557 115.7 93.709C115.26 92.8624 109.931 90.3111 109.683 88.0533C109.435 85.7955 108.136 77.803 108.114 77.2273C108.164 76.7768 108.363 76.3559 108.678 76.0306C108.597 75.4088 108.631 74.7773 108.78 74.168C109.017 73.66 110.225 74.168 110.225 74.168C110.225 74.168 111.275 73.7616 111.512 73.897C111.848 74.3758 112.121 74.8955 112.325 75.4436Z" fill="#FFA399"/>
<path d="M126.661 122.676C126.661 126.063 126.74 128.501 125.939 130.319C125.436 131.446 124.559 132.364 123.455 132.915C123.046 133.142 122.61 133.316 122.157 133.435C119.425 134.123 116.761 132.419 115.384 129.213C115.237 128.897 115.113 128.558 114.989 128.208C113.86 124.991 114.639 110.563 115.079 101.939C115.248 98.7778 115.384 96.3958 115.384 95.6395C115.384 92.8511 123.128 93.5397 123.512 95.2669C123.455 95.2669 126.684 117.337 126.661 122.676Z" fill="#6E46FB"/>
<path d="M125.939 130.319C125.437 131.446 124.559 132.363 123.455 132.915C123.046 133.142 122.61 133.316 122.157 133.435C121.532 133.677 120.857 133.765 120.191 133.69C119.525 133.616 118.886 133.381 118.33 133.006C114.944 130.748 106.059 121.22 101.837 111.421C97.6152 101.623 99.3424 95.9555 102.515 93.8445C97.2314 102.706 103.497 109.581 107.572 117.043C109.748 121.346 112.346 125.423 115.327 129.213C116.283 130.423 117.483 131.42 118.85 132.136C121.107 133.119 123.218 132.452 125.386 130.77L125.939 130.319Z" fill="#633EE8"/>
<path d="M74.2808 96.983L71.7746 95.5154C70.8926 95.0075 70.0577 94.4219 69.2798 93.7656L71.7972 95.2219C72.571 95.8816 73.4022 96.471 74.2808 96.983Z" fill="#5228E8"/>
<mask id="mask1_230_3448" style="mask-type:luminance" maskUnits="userSpaceOnUse" x="69" y="93" width="6" height="4">
<path d="M74.2808 96.983L71.7746 95.5154C70.8926 95.0075 70.0577 94.4219 69.2798 93.7656L71.7972 95.2219C72.571 95.8816 73.4022 96.471 74.2808 96.983Z" fill="white"/>
</mask>
<g mask="url(#mask1_230_3448)">
<path d="M74.2808 96.983L71.7746 95.5154C70.8926 95.0075 70.0577 94.4219 69.2798 93.7656L71.7972 95.2219C72.571 95.8816 73.4022 96.471 74.2808 96.983Z" fill="#5228E8"/>
</g>
<path d="M84.3845 45.0201L86.9245 46.4764C82.2622 43.7671 75.2743 44.3767 67.4624 48.8809L64.9111 47.4134C72.723 42.8978 79.7222 42.3108 84.3845 45.0201Z" fill="#5228E8"/>
<mask id="mask2_230_3448" style="mask-type:luminance" maskUnits="userSpaceOnUse" x="64" y="43" width="23" height="6">
<path d="M84.3845 45.0201L86.9245 46.4764C82.2622 43.7671 75.2743 44.3767 67.4624 48.8809L64.9111 47.4134C72.723 42.8978 79.7222 42.3108 84.3845 45.0201Z" fill="white"/>
</mask>
<g mask="url(#mask2_230_3448)">
<path d="M67.4286 48.8811L64.9111 47.4136C72.723 42.898 79.7222 42.2997 84.3845 45.009L86.9245 46.4766C82.2622 43.7673 75.2743 44.3769 67.4624 48.8811H67.4286Z" fill="#5228E8"/>
</g>
<path d="M48.1018 100.471L45.5957 99.0149C41.9042 96.87 39.6803 92.6592 39.6577 86.6648C39.6577 73.1181 50.9466 55.5526 64.911 47.4811L67.4284 48.9373C53.4414 56.9525 42.13 74.5067 42.1751 88.0533C42.1864 94.059 44.4103 98.2698 48.1018 100.471Z" fill="#5228E8"/>
<mask id="mask3_230_3448" style="mask-type:luminance" maskUnits="userSpaceOnUse" x="39" y="47" width="29" height="54">
<path d="M48.1018 100.471L45.5957 99.0149C41.9042 96.87 39.6803 92.6592 39.6577 86.6648C39.6577 73.1181 50.9466 55.5526 64.911 47.4811L67.4284 48.9373C53.4414 56.9525 42.13 74.5067 42.1751 88.0533C42.1864 94.059 44.4103 98.2698 48.1018 100.471Z" fill="white"/>
</mask>
<g mask="url(#mask3_230_3448)">
<path d="M48.1018 100.471L45.5957 99.0149C41.9042 96.87 39.6803 92.6592 39.6577 86.6648C39.6577 73.1181 50.9466 55.5526 64.911 47.4811L67.4284 48.9373C53.4414 56.9525 42.13 74.5067 42.1751 88.0533C42.1751 94.0477 44.4329 98.2133 48.1018 100.403V100.471Z" fill="#5228E8"/>
</g>
<path d="M67.4286 48.8809C81.4155 40.8094 92.7835 45.2572 92.8173 58.8264C92.8173 65.9723 89.7129 74.2358 84.6893 81.63L84.8587 83.0298C85.6715 89.4871 87.9518 94.68 91.4401 98.2134L91.0337 98.3601C83.4024 100.482 76.6855 99.3197 71.8426 95.1992C70.4843 96.2065 69.071 97.1374 67.6092 97.9876C53.5771 106.116 42.2092 101.6 42.1754 88.0534C42.1415 74.5067 53.4417 56.9525 67.4286 48.8809Z" fill="url(#paint12_linear_230_3448)"/>
<path d="M60.6552 76.8999L61.7841 77.5321C61.4223 77.3655 61.0229 77.2976 60.6264 77.3353C60.2298 77.373 59.8503 77.5149 59.5263 77.7466L58.3975 77.1144C58.7214 76.8827 59.1009 76.7408 59.4975 76.7031C59.894 76.6654 60.2934 76.7333 60.6552 76.8999Z" fill="#5228E8"/>
<mask id="mask4_230_3448" style="mask-type:luminance" maskUnits="userSpaceOnUse" x="58" y="76" width="4" height="2">
<path d="M60.6552 76.8999L61.7841 77.5321C61.4223 77.3655 61.0229 77.2976 60.6264 77.3353C60.2298 77.373 59.8503 77.5149 59.5263 77.7466L58.3975 77.1144C58.7214 76.8827 59.1009 76.7408 59.4975 76.7031C59.894 76.6654 60.2934 76.7333 60.6552 76.8999Z" fill="white"/>
</mask>
<g mask="url(#mask4_230_3448)">
<path d="M59.4927 77.7466L58.3638 77.1144C58.6877 76.8827 59.0672 76.7408 59.4638 76.7031C59.8603 76.6654 60.2597 76.7333 60.6215 76.8999L61.7504 77.5321C61.3886 77.3655 60.9892 77.2976 60.5927 77.3353C60.1961 77.373 59.8166 77.5149 59.4927 77.7466Z" fill="#5228E8"/>
</g>
<path d="M57.2688 85.2198L56.1399 84.5876C55.8429 84.3479 55.6116 84.0368 55.4675 83.6835C55.3233 83.3301 55.2712 82.9459 55.3158 82.5669C55.3708 81.4747 55.684 80.4112 56.2295 79.4634C56.775 78.5156 57.5374 77.7106 58.4541 77.1144L59.583 77.7466C58.6663 78.3428 57.9039 79.1478 57.3584 80.0956C56.8129 81.0434 56.4997 82.1069 56.4447 83.1991C56.4 83.5781 56.4522 83.9623 56.5964 84.3156C56.7405 84.669 56.9718 84.9801 57.2688 85.2198Z" fill="#5228E8"/>
<mask id="mask5_230_3448" style="mask-type:luminance" maskUnits="userSpaceOnUse" x="55" y="77" width="5" height="9">
<path d="M57.2688 85.2198L56.1399 84.5876C55.8429 84.3479 55.6116 84.0368 55.4675 83.6835C55.3233 83.3301 55.2712 82.9459 55.3158 82.5669C55.3708 81.4747 55.684 80.4112 56.2295 79.4634C56.775 78.5156 57.5374 77.7106 58.4541 77.1144L59.583 77.7466C58.6663 78.3428 57.9039 79.1478 57.3584 80.0956C56.8129 81.0434 56.4997 82.1069 56.4447 83.1991C56.4 83.5781 56.4522 83.9623 56.5964 84.3156C56.7405 84.669 56.9718 84.9801 57.2688 85.2198Z" fill="white"/>
</mask>
<g mask="url(#mask5_230_3448)">
<path d="M57.2688 85.2198L56.1399 84.5876C55.8429 84.3479 55.6116 84.0368 55.4675 83.6835C55.3233 83.3301 55.2712 82.9459 55.3158 82.5669C55.3708 81.4747 55.684 80.4112 56.2295 79.4634C56.775 78.5156 57.5374 77.7106 58.4541 77.1144L59.583 77.7466C58.6663 78.3428 57.9039 79.1478 57.3584 80.0956C56.8129 81.0434 56.4997 82.1069 56.4447 83.1991C56.4103 83.5861 56.4764 83.9755 56.6366 84.3295C56.7968 84.6835 57.0457 84.9901 57.3591 85.2198H57.2688Z" fill="#5228E8"/>
</g>
<path d="M59.4928 77.7466C61.2313 76.7419 62.6537 77.5434 62.6537 79.5528C62.5978 80.6433 62.2842 81.7049 61.7387 82.6507C61.1932 83.5966 60.4312 84.3996 59.5154 84.9941C57.7769 85.9988 56.3545 85.1973 56.3545 83.1991C56.4096 82.107 56.7227 81.0434 57.2682 80.0956C57.8137 79.1478 58.5761 78.3428 59.4928 77.7466Z" fill="#FEFFFF"/>
<path d="M70.5669 71.1764L71.6957 71.8086C71.3339 71.642 70.9345 71.5741 70.538 71.6118C70.1414 71.6495 69.7619 71.7914 69.438 72.0231L68.3091 71.4022C68.632 71.1687 69.011 71.0247 69.4076 70.9851C69.8041 70.9454 70.2041 71.0114 70.5669 71.1764Z" fill="#5228E8"/>
<mask id="mask6_230_3448" style="mask-type:luminance" maskUnits="userSpaceOnUse" x="68" y="70" width="4" height="3">
<path d="M70.5669 71.1764L71.6957 71.8086C71.3339 71.642 70.9345 71.5741 70.538 71.6118C70.1414 71.6495 69.7619 71.7914 69.438 72.0231L68.3091 71.4022C68.632 71.1687 69.011 71.0247 69.4076 70.9851C69.8041 70.9454 70.2041 71.0114 70.5669 71.1764Z" fill="white"/>
</mask>
<g mask="url(#mask6_230_3448)">
<path d="M69.4043 72.0231L68.2754 71.4022C68.5983 71.1687 68.9773 71.0247 69.3739 70.9851C69.7704 70.9454 70.1704 71.0114 70.5332 71.1764L71.6621 71.8086C71.3003 71.642 70.9008 71.5741 70.5043 71.6118C70.1078 71.6495 69.7282 71.7914 69.4043 72.0231Z" fill="#5228E8"/>
</g>
<path d="M67.1801 79.4964L66.0512 78.8642C65.7378 78.6345 65.4889 78.3278 65.3287 77.9738C65.1685 77.6198 65.1024 77.2305 65.1368 76.8435C65.1891 75.7522 65.5011 74.6892 66.0469 73.7428C66.5928 72.7964 67.3567 71.994 68.2751 71.4022L69.404 72.0231C68.4858 72.6188 67.7217 73.4234 67.1743 74.3711C66.6268 75.3188 66.3116 76.3827 66.2544 77.4756C66.2213 77.8637 66.2891 78.2537 66.4513 78.6078C66.6135 78.9619 66.8646 79.268 67.1801 79.4964Z" fill="#5228E8"/>
<mask id="mask7_230_3448" style="mask-type:luminance" maskUnits="userSpaceOnUse" x="65" y="71" width="5" height="9">
<path d="M67.1801 79.4964L66.0512 78.8642C65.7378 78.6345 65.4889 78.3278 65.3287 77.9738C65.1685 77.6198 65.1024 77.2305 65.1368 76.8435C65.1891 75.7522 65.5011 74.6892 66.0469 73.7428C66.5928 72.7964 67.3567 71.994 68.2751 71.4022L69.404 72.0231C68.4858 72.6188 67.7217 73.4234 67.1743 74.3711C66.6268 75.3188 66.3116 76.3827 66.2544 77.4756C66.2213 77.8637 66.2891 78.2537 66.4513 78.6078C66.6135 78.9619 66.8646 79.268 67.1801 79.4964Z" fill="white"/>
</mask>
<g mask="url(#mask7_230_3448)">
<path d="M67.1801 79.4964L66.0512 78.8642C65.7378 78.6345 65.4889 78.3278 65.3287 77.9738C65.1685 77.6198 65.1024 77.2305 65.1368 76.8435C65.1891 75.7522 65.5011 74.6892 66.0469 73.7428C66.5928 72.7964 67.3567 71.994 68.2751 71.4022L69.404 72.0231C68.4858 72.6188 67.7217 73.4234 67.1743 74.3711C66.6268 75.3188 66.3116 76.3827 66.2544 77.4756C66.2213 77.8637 66.2891 78.2537 66.4513 78.6078C66.6135 78.9619 66.8646 79.268 67.1801 79.4964Z" fill="#5228E8"/>
</g>
<path d="M69.404 72.0231C71.1425 71.0184 72.5649 71.8199 72.5649 73.8293C72.509 74.9198 72.1954 75.9814 71.6499 76.9272C71.1044 77.873 70.3424 78.6761 69.4266 79.2706C67.6768 80.2866 66.2657 79.4738 66.2544 77.4756C66.3116 76.3827 66.6269 75.3188 67.1743 74.3711C67.7217 73.4234 68.4858 72.6187 69.404 72.0231Z" fill="#FEFFFF"/>
<path d="M80.4785 65.4755L81.6074 66.1077C81.2456 65.9411 80.8461 65.8732 80.4496 65.9109C80.0531 65.9485 79.6736 66.0904 79.3496 66.3222L78.2207 65.7013C78.5436 65.4677 78.9226 65.3238 79.3192 65.2842C79.7157 65.2445 80.1157 65.3105 80.4785 65.4755Z" fill="#5228E8"/>
<mask id="mask8_230_3448" style="mask-type:luminance" maskUnits="userSpaceOnUse" x="78" y="65" width="4" height="2">
<path d="M80.4785 65.4755L81.6074 66.1077C81.2456 65.9411 80.8461 65.8732 80.4496 65.9109C80.0531 65.9485 79.6736 66.0904 79.3496 66.3222L78.2207 65.7013C78.5436 65.4677 78.9226 65.3238 79.3192 65.2842C79.7157 65.2445 80.1157 65.3105 80.4785 65.4755Z" fill="white"/>
</mask>
<g mask="url(#mask8_230_3448)">
<path d="M79.3159 66.2996L78.187 65.6787C78.5099 65.4451 78.8889 65.3012 79.2855 65.2616C79.682 65.2219 80.082 65.2879 80.4448 65.4529L81.5737 66.0851C81.2119 65.9185 80.8124 65.8506 80.4159 65.8883C80.0194 65.9259 79.6399 66.0678 79.3159 66.2996Z" fill="#5228E8"/>
</g>
<path d="M77.0918 73.7728L75.9629 73.1407C75.6557 72.9072 75.4134 72.5988 75.2593 72.2451C75.1051 71.8913 75.0442 71.5039 75.0823 71.12C75.1404 70.0287 75.4561 68.9668 76.0035 68.021C76.551 67.0752 77.3146 66.2726 78.2319 65.6787L79.3608 66.2996C78.4433 66.8959 77.6797 67.7007 77.1323 68.6483C76.585 69.5958 76.2694 70.6594 76.2112 71.7521C76.1731 72.1361 76.234 72.5235 76.3882 72.8772C76.5423 73.231 76.7845 73.5393 77.0918 73.7728Z" fill="#5228E8"/>
<mask id="mask9_230_3448" style="mask-type:luminance" maskUnits="userSpaceOnUse" x="75" y="65" width="5" height="9">
<path d="M77.0918 73.7728L75.9629 73.1407C75.6557 72.9072 75.4134 72.5988 75.2593 72.2451C75.1051 71.8913 75.0442 71.5039 75.0823 71.12C75.1404 70.0287 75.4561 68.9668 76.0035 68.021C76.551 67.0752 77.3146 66.2726 78.2319 65.6787L79.3608 66.2996C78.4433 66.8959 77.6797 67.7007 77.1323 68.6483C76.585 69.5958 76.2694 70.6594 76.2112 71.7521C76.1731 72.1361 76.234 72.5235 76.3882 72.8772C76.5423 73.231 76.7845 73.5393 77.0918 73.7728Z" fill="white"/>
</mask>
<g mask="url(#mask9_230_3448)">
<path d="M77.0918 73.7728L75.9629 73.1407C75.6557 72.9072 75.4134 72.5988 75.2593 72.2451C75.1051 71.8913 75.0442 71.5039 75.0823 71.12C75.1404 70.0287 75.4561 68.9668 76.0035 68.021C76.551 67.0752 77.3146 66.2726 78.2319 65.6787L79.3608 66.2996C78.4433 66.8959 77.6797 67.7007 77.1323 68.6483C76.585 69.5958 76.2694 70.6594 76.2112 71.7521C76.1781 72.1402 76.246 72.5302 76.4082 72.8843C76.5704 73.2384 76.8214 73.5445 77.1369 73.7728H77.0918Z" fill="#5228E8"/>
</g>
<path d="M79.3156 66.2996C81.0541 65.2949 82.4765 66.1077 82.4765 68.1058C82.4205 69.1978 82.107 70.261 81.5616 71.2087C81.0162 72.1563 80.2543 72.9615 79.3382 73.5584C77.5884 74.5631 76.1773 73.7503 76.166 71.7522C76.2241 70.6594 76.5397 69.5959 77.0871 68.6483C77.6345 67.7007 78.3981 66.8959 79.3156 66.2996Z" fill="#FEFFFF"/>
<defs>
<linearGradient id="paint0_linear_230_3448" x1="15.0368" y1="205.796" x2="238.963" y2="205.796" gradientUnits="userSpaceOnUse">
<stop stop-color="#D5D4DB"/>
<stop offset="0.51" stop-color="#E6E5ED"/>
<stop offset="1" stop-color="#D5D4DB"/>
</linearGradient>
<linearGradient id="paint1_linear_230_3448" x1="4.4572" y1="174.218" x2="185.631" y2="173.858" gradientUnits="userSpaceOnUse">
<stop offset="0.07" stop-color="#9C82F0"/>
<stop offset="0.62" stop-color="#9C82F0"/>
<stop offset="0.63" stop-color="#AB94F6"/>
<stop offset="0.64" stop-color="#BDAAFD"/>
<stop offset="0.65" stop-color="#C4B2FF"/>
<stop offset="0.66" stop-color="#C0ADFD"/>
<stop offset="0.67" stop-color="#B5A0F9"/>
<stop offset="0.68" stop-color="#AE98F7"/>
<stop offset="0.7" stop-color="#AC96F6"/>
<stop offset="0.99" stop-color="#AC96F6"/>
<stop offset="1" stop-color="#C2B0FE"/>
</linearGradient>
<linearGradient id="paint2_linear_230_3448" x1="129.935" y1="61.0503" x2="134.315" y2="61.0503" gradientUnits="userSpaceOnUse">
<stop offset="0.14" stop-color="#AABBD6"/>
<stop offset="0.2" stop-color="#AEBDD8"/>
<stop offset="0.71" stop-color="#CCCDE8"/>
<stop offset="1" stop-color="#D7D3EE"/>
</linearGradient>
<linearGradient id="paint3_linear_230_3448" x1="137.262" y1="69.1671" x2="132.893" y2="61.5922" gradientUnits="userSpaceOnUse">
<stop offset="0.14" stop-color="#AABBD6"/>
<stop offset="0.2" stop-color="#AEBDD8"/>
<stop offset="0.71" stop-color="#CCCDE8"/>
<stop offset="1" stop-color="#D7D3EE"/>
</linearGradient>
<linearGradient id="paint4_linear_230_3448" x1="135.072" y1="70.42" x2="129.946" y2="61.5583" gradientUnits="userSpaceOnUse">
<stop offset="0.14" stop-color="#AABBD6"/>
<stop offset="0.2" stop-color="#AEBDD8"/>
<stop offset="0.71" stop-color="#CCCDE8"/>
<stop offset="1" stop-color="#D7D3EE"/>
</linearGradient>
<linearGradient id="paint5_linear_230_3448" x1="129.653" y1="66.0851" x2="135.049" y2="66.0851" gradientUnits="userSpaceOnUse">
<stop offset="0.14" stop-color="#AABBD6"/>
<stop offset="0.2" stop-color="#AEBDD8"/>
<stop offset="0.71" stop-color="#CCCDE8"/>
<stop offset="1" stop-color="#D7D3EE"/>
</linearGradient>
<linearGradient id="paint6_linear_230_3448" x1="135.783" y1="70.4088" x2="130.251" y2="60.8245" gradientUnits="userSpaceOnUse">
<stop offset="0.17" stop-color="#5A545E"/>
<stop offset="0.45" stop-color="#615B66"/>
<stop offset="0.79" stop-color="#706875"/>
</linearGradient>
<linearGradient id="paint7_linear_230_3448" x1="119.606" y1="80.0382" x2="114.074" y2="70.4539" gradientUnits="userSpaceOnUse">
<stop offset="0.17" stop-color="#5A545E"/>
<stop offset="0.45" stop-color="#615B66"/>
<stop offset="0.79" stop-color="#706875"/>
</linearGradient>
<linearGradient id="paint8_linear_230_3448" x1="117.528" y1="80.6817" x2="113.16" y2="73.1069" gradientUnits="userSpaceOnUse">
<stop offset="0.14" stop-color="#AABBD6"/>
<stop offset="0.2" stop-color="#AEBDD8"/>
<stop offset="0.71" stop-color="#CCCDE8"/>
<stop offset="1" stop-color="#D7D3EE"/>
</linearGradient>
<linearGradient id="paint9_linear_230_3448" x1="115.339" y1="81.946" x2="110.225" y2="73.0729" gradientUnits="userSpaceOnUse">
<stop stop-color="#D8DCED"/>
<stop offset="0.82" stop-color="#EDEAFB"/>
</linearGradient>
<linearGradient id="paint10_linear_230_3448" x1="126.548" y1="55.5187" x2="128.535" y2="52.0643" gradientUnits="userSpaceOnUse">
<stop offset="0.29" stop-color="#EEEBFC"/>
<stop offset="1" stop-color="#EAE8FA"/>
</linearGradient>
<linearGradient id="paint11_linear_230_3448" x1="110.451" y1="73.3212" x2="120.701" y2="55.5525" gradientUnits="userSpaceOnUse">
<stop stop-color="#EAE8FA"/>
<stop offset="0.71" stop-color="#EEEBFC"/>
</linearGradient>
<linearGradient id="paint12_linear_230_3448" x1="42.1753" y1="73.4457" x2="92.8173" y2="73.4457" gradientUnits="userSpaceOnUse">
<stop stop-color="#6E46FB"/>
<stop offset="0.466667" stop-color="#71D0F5"/>
<stop offset="1" stop-color="#F5B013"/>
</linearGradient>
</defs>
</svg>
