<svg width="21" height="20" viewBox="0 0 21 20" fill="none" xmlns="http://www.w3.org/2000/svg">
<path d="M14.4584 2.96666V1.66666C14.4584 1.32499 14.1751 1.04166 13.8334 1.04166C13.4918 1.04166 13.2084 1.32499 13.2084 1.66666V2.91666H7.79178V1.66666C7.79178 1.32499 7.50844 1.04166 7.16678 1.04166C6.82511 1.04166 6.54178 1.32499 6.54178 1.66666V2.96666C4.29178 3.17499 3.20011 4.51666 3.03344 6.50832C3.01678 6.74999 3.21678 6.94999 3.45011 6.94999H17.5501C17.7918 6.94999 17.9918 6.74166 17.9668 6.50832C17.8001 4.51666 16.7084 3.17499 14.4584 2.96666Z" fill="#0FBA53"/>
<path d="M17.1667 8.20001H3.83333C3.375 8.20001 3 8.57501 3 9.03335V14.1667C3 16.6667 4.25 18.3333 7.16667 18.3333H13.8333C16.75 18.3333 18 16.6667 18 14.1667V9.03335C18 8.57501 17.625 8.20001 17.1667 8.20001ZM8.175 15.175C8.13333 15.2083 8.09167 15.25 8.05 15.275C8 15.3083 7.95 15.3333 7.9 15.35C7.85 15.375 7.8 15.3917 7.75 15.4C7.69167 15.4083 7.64167 15.4167 7.58333 15.4167C7.475 15.4167 7.36667 15.3917 7.26667 15.35C7.15833 15.3083 7.075 15.25 6.99167 15.175C6.84167 15.0167 6.75 14.8 6.75 14.5833C6.75 14.3667 6.84167 14.15 6.99167 13.9917C7.075 13.9167 7.15833 13.8583 7.26667 13.8167C7.41667 13.75 7.58333 13.7333 7.75 13.7667C7.8 13.775 7.85 13.7917 7.9 13.8167C7.95 13.8333 8 13.8583 8.05 13.8917C8.09167 13.925 8.13333 13.9583 8.175 13.9917C8.325 14.15 8.41667 14.3667 8.41667 14.5833C8.41667 14.8 8.325 15.0167 8.175 15.175ZM8.175 12.2583C8.01667 12.4083 7.8 12.5 7.58333 12.5C7.36667 12.5 7.15 12.4083 6.99167 12.2583C6.84167 12.1 6.75 11.8833 6.75 11.6667C6.75 11.45 6.84167 11.2333 6.99167 11.075C7.225 10.8417 7.59167 10.7667 7.9 10.9C8.00833 10.9417 8.1 11 8.175 11.075C8.325 11.2333 8.41667 11.45 8.41667 11.6667C8.41667 11.8833 8.325 12.1 8.175 12.2583ZM11.0917 15.175C10.9333 15.325 10.7167 15.4167 10.5 15.4167C10.2833 15.4167 10.0667 15.325 9.90833 15.175C9.75833 15.0167 9.66667 14.8 9.66667 14.5833C9.66667 14.3667 9.75833 14.15 9.90833 13.9917C10.2167 13.6833 10.7833 13.6833 11.0917 13.9917C11.2417 14.15 11.3333 14.3667 11.3333 14.5833C11.3333 14.8 11.2417 15.0167 11.0917 15.175ZM11.0917 12.2583C11.05 12.2917 11.0083 12.325 10.9667 12.3583C10.9167 12.3917 10.8667 12.4167 10.8167 12.4333C10.7667 12.4583 10.7167 12.475 10.6667 12.4833C10.6083 12.4917 10.5583 12.5 10.5 12.5C10.2833 12.5 10.0667 12.4083 9.90833 12.2583C9.75833 12.1 9.66667 11.8833 9.66667 11.6667C9.66667 11.45 9.75833 11.2333 9.90833 11.075C9.98333 11 10.075 10.9417 10.1833 10.9C10.4917 10.7667 10.8583 10.8417 11.0917 11.075C11.2417 11.2333 11.3333 11.45 11.3333 11.6667C11.3333 11.8833 11.2417 12.1 11.0917 12.2583ZM14.0083 15.175C13.85 15.325 13.6333 15.4167 13.4167 15.4167C13.2 15.4167 12.9833 15.325 12.825 15.175C12.675 15.0167 12.5833 14.8 12.5833 14.5833C12.5833 14.3667 12.675 14.15 12.825 13.9917C13.1333 13.6833 13.7 13.6833 14.0083 13.9917C14.1583 14.15 14.25 14.3667 14.25 14.5833C14.25 14.8 14.1583 15.0167 14.0083 15.175ZM14.0083 12.2583C13.9667 12.2917 13.925 12.325 13.8833 12.3583C13.8333 12.3917 13.7833 12.4167 13.7333 12.4333C13.6833 12.4583 13.6333 12.475 13.5833 12.4833C13.525 12.4917 13.4667 12.5 13.4167 12.5C13.2 12.5 12.9833 12.4083 12.825 12.2583C12.675 12.1 12.5833 11.8833 12.5833 11.6667C12.5833 11.45 12.675 11.2333 12.825 11.075C12.9083 11 12.9917 10.9417 13.1 10.9C13.25 10.8333 13.4167 10.8167 13.5833 10.85C13.6333 10.8583 13.6833 10.875 13.7333 10.9C13.7833 10.9167 13.8333 10.9417 13.8833 10.975C13.925 11.0083 13.9667 11.0417 14.0083 11.075C14.1583 11.2333 14.25 11.45 14.25 11.6667C14.25 11.8833 14.1583 12.1 14.0083 12.2583Z" fill="#0FBA53"/>
</svg>
