<svg width="32" height="32" viewBox="0 0 32 32" fill="none" xmlns="http://www.w3.org/2000/svg">
<path d="M32 24C32 24.943 31.6254 25.8474 30.9586 26.5142C30.2918 27.181 29.3874 27.5556 28.4444 27.5556H3.55556C2.61256 27.5556 1.70819 27.181 1.0414 26.5142C0.374602 25.8474 0 24.943 0 24V8.00001C0 7.05702 0.374602 6.15265 1.0414 5.48586C1.70819 4.81906 2.61256 4.44446 3.55556 4.44446H28.4444C29.3874 4.44446 30.2918 4.81906 30.9586 5.48586C31.6254 6.15265 32 7.05702 32 8.00001V24Z" fill="#DE2910"/>
<path d="M9.89874 7.97951L10.553 8.29596L11.0765 7.79285L10.9779 8.51285L11.6179 8.85596L10.9032 8.98396L10.7752 9.69862L10.4321 9.05862L9.71208 9.15729L10.2152 8.63374L9.89874 7.97951ZM14.0454 10.5937L13.729 11.2471L14.2321 11.7715L13.513 11.672L13.1699 12.3128L13.0419 11.5973L12.3263 11.4693L12.9672 11.1262L12.8676 10.4071L13.3921 10.9102L14.0454 10.5937ZM13.1947 13.9528L13.433 14.6391L14.1592 14.6542L13.5805 15.0924L13.7912 15.7884L13.1947 15.3733L12.5983 15.7884L12.8081 15.0924L12.2294 14.6542L12.9556 14.6391L13.1947 13.9528ZM9.89874 16.8684L10.553 17.1848L11.0765 16.6817L10.9779 17.4017L11.6179 17.7448L10.9032 17.8728L10.7752 18.5875L10.4321 17.9475L9.71208 18.0462L10.2152 17.5226L9.89874 16.8684ZM6.2223 9.73418L7.04808 12.1084L9.56008 12.16L7.55741 13.6782L8.28541 16.0835L6.2223 14.648L4.15919 16.0835L4.88719 13.6782L2.88452 12.16L5.39652 12.1084L6.2223 9.73418Z" fill="#FFDE02"/>
</svg>
