<svg width="36" height="36" viewBox="0 0 36 36" fill="none" xmlns="http://www.w3.org/2000/svg">
<rect width="36" height="36" rx="18" fill="white" fill-opacity="0.45"/>
<path d="M17 16.98C17 16.7148 17.1054 16.4605 17.2929 16.2729C17.4804 16.0854 17.7348 15.98 18 15.98C18.2652 15.98 18.5196 16.0854 18.7071 16.2729C18.8946 16.4605 19 16.7148 19 16.98V22.98C19 23.2452 18.8946 23.4996 18.7071 23.6871C18.5196 23.8747 18.2652 23.98 18 23.98C17.7348 23.98 17.4804 23.8747 17.2929 23.6871C17.1054 23.4996 17 23.2452 17 22.98V16.98ZM18 12.051C17.7348 12.051 17.4804 12.1564 17.2929 12.3439C17.1054 12.5315 17 12.7858 17 13.051C17 13.3162 17.1054 13.5706 17.2929 13.7581C17.4804 13.9457 17.7348 14.051 18 14.051C18.2652 14.051 18.5196 13.9457 18.7071 13.7581C18.8946 13.5706 19 13.3162 19 13.051C19 12.7858 18.8946 12.5315 18.7071 12.3439C18.5196 12.1564 18.2652 12.051 18 12.051Z" fill="#201B30"/>
<path fill-rule="evenodd" clip-rule="evenodd" d="M18 8C12.477 8 8 12.477 8 18C8 23.523 12.477 28 18 28C23.523 28 28 23.523 28 18C28 12.477 23.523 8 18 8ZM10 18C10 20.1217 10.8429 22.1566 12.3431 23.6569C13.8434 25.1571 15.8783 26 18 26C20.1217 26 22.1566 25.1571 23.6569 23.6569C25.1571 22.1566 26 20.1217 26 18C26 15.8783 25.1571 13.8434 23.6569 12.3431C22.1566 10.8429 20.1217 10 18 10C15.8783 10 13.8434 10.8429 12.3431 12.3431C10.8429 13.8434 10 15.8783 10 18Z" fill="#201B30"/>
</svg>
