<svg width="24" height="24" viewBox="0 0 24 24" fill="none" xmlns="http://www.w3.org/2000/svg">
<path d="M12.75 15.9203H13.4C14.05 15.9203 14.59 15.3403 14.59 14.6403C14.59 13.7703 14.28 13.6003 13.77 13.4203L12.76 13.0703V15.9203H12.75Z" fill="#6E46FB"/>
<path d="M11.97 1.90041C6.45 1.92041 1.98 6.41041 2 11.9304C2.02 17.4504 6.51 21.9204 12.03 21.9004C17.55 21.8804 22.02 17.3904 22 11.8704C21.98 6.35041 17.49 1.89041 11.97 1.90041ZM14.26 12.0004C15.04 12.2704 16.09 12.8504 16.09 14.6404C16.09 16.1804 14.88 17.4204 13.4 17.4204H12.75V18.0004C12.75 18.4104 12.41 18.7504 12 18.7504C11.59 18.7504 11.25 18.4104 11.25 18.0004V17.4204H10.89C9.25 17.4204 7.92 16.0404 7.92 14.3404C7.92 13.9304 8.26 13.5904 8.67 13.5904C9.08 13.5904 9.42 13.9304 9.42 14.3404C9.42 15.2104 10.08 15.9204 10.89 15.9204H11.25V12.5404L9.74 12.0004C8.96 11.7304 7.91 11.1504 7.91 9.36041C7.91 7.82041 9.12 6.58041 10.6 6.58041H11.25V6.00041C11.25 5.59041 11.59 5.25041 12 5.25041C12.41 5.25041 12.75 5.59041 12.75 6.00041V6.58041H13.11C14.75 6.58041 16.08 7.96041 16.08 9.66041C16.08 10.0704 15.74 10.4104 15.33 10.4104C14.92 10.4104 14.58 10.0704 14.58 9.66041C14.58 8.79041 13.92 8.08041 13.11 8.08041H12.75V11.4604L14.26 12.0004Z" fill="#6E46FB"/>
<path d="M9.42 9.37008C9.42 10.2401 9.73 10.4101 10.24 10.5901L11.25 10.9401V8.08008H10.6C9.95 8.08008 9.42 8.66008 9.42 9.37008Z" fill="#6E46FB"/>
</svg>
