<svg width="24" height="24" viewBox="0 0 24 24" fill="none" xmlns="http://www.w3.org/2000/svg">
<path d="M12 14C6.98997 14 2.90997 17.36 2.90997 21.5C2.90997 21.78 3.12997 22 3.40997 22H20.59C20.87 22 21.09 21.78 21.09 21.5C21.09 17.36 17.01 14 12 14Z" fill="#6E46FB"/>
<path d="M16.85 5.79996C16.73 5.30996 16.53 4.82996 16.25 4.38996C16.06 4.06996 15.81 3.74996 15.54 3.46996C14.64 2.56996 13.47 2.07996 12.27 2.01996C10.91 1.92996 9.52003 2.42996 8.47003 3.46996C7.48003 4.44996 6.98003 5.75996 7.00003 7.07996C7.01003 8.32996 7.51003 9.57996 8.46003 10.54C9.12003 11.2 9.93003 11.64 10.8 11.84C11.27 11.96 11.77 12.02 12.27 11.98C13.46 11.93 14.62 11.46 15.53 10.54C16.82 9.24996 17.26 7.43996 16.85 5.79996ZM14 8.99996C13.64 9.35996 13.04 9.35996 12.68 8.99996L11.99 8.30996L11.33 8.96996C10.97 9.32996 10.37 9.32996 10.01 8.96996C9.64003 8.59996 9.64003 8.00996 10 7.64996L10.66 6.98996L10.02 6.36996C9.66003 5.99996 9.66003 5.40996 10.02 5.02996C10.39 4.66996 10.98 4.66996 11.36 5.02996L11.98 5.66996L12.65 4.99996C13.01 4.63996 13.6 4.63996 13.97 4.99996C14.33 5.35996 14.33 5.95996 13.97 6.31996L13.31 6.97996L14 7.67996C14.36 8.03996 14.36 8.63996 14 8.99996Z" fill="#6E46FB"/>
</svg>
