<svg width="20" height="20" viewBox="0 0 20 20" fill="none" xmlns="http://www.w3.org/2000/svg">
<path d="M17.5 18.3333H2.49998C2.15831 18.3333 1.87498 18.0499 1.87498 17.7083C1.87498 17.3666 2.15831 17.0833 2.49998 17.0833H17.5C17.8416 17.0833 18.125 17.3666 18.125 17.7083C18.125 18.0499 17.8416 18.3333 17.5 18.3333Z" fill="#201B30"/>
<path d="M15.8499 2.89993C14.2333 1.28326 12.6499 1.24159 10.9916 2.89993L9.98327 3.90826C9.89994 3.99159 9.86661 4.12493 9.89994 4.24159C10.5333 6.44993 12.2999 8.21659 14.5083 8.84993C14.5416 8.85826 14.5749 8.86659 14.6083 8.86659C14.6999 8.86659 14.7833 8.83326 14.8499 8.76659L15.8499 7.75826C16.6749 6.9416 17.0749 6.14993 17.0749 5.34993C17.0833 4.52493 16.6833 3.72493 15.8499 2.89993Z" fill="#201B30"/>
<path d="M13.0083 9.60829C12.7666 9.49163 12.5333 9.37496 12.3083 9.24163C12.1249 9.13329 11.9499 9.01663 11.7749 8.89163C11.6333 8.79996 11.4666 8.66663 11.3083 8.53329C11.2916 8.52496 11.2333 8.47496 11.1666 8.40829C10.8916 8.17496 10.5833 7.87496 10.3083 7.54163C10.2833 7.52496 10.2416 7.46663 10.1833 7.39163C10.0999 7.29163 9.95827 7.12496 9.83327 6.93329C9.73327 6.80829 9.6166 6.62496 9.50827 6.44163C9.37494 6.21663 9.25827 5.99163 9.14161 5.75829C9.12395 5.72046 9.10687 5.68282 9.0903 5.64541C8.96733 5.36764 8.60513 5.28644 8.39033 5.50123L3.61661 10.275C3.50827 10.3833 3.40827 10.5916 3.38327 10.7333L2.93327 13.925C2.84994 14.4916 3.00827 15.025 3.35827 15.3833C3.65827 15.675 4.07494 15.8333 4.52494 15.8333C4.62494 15.8333 4.72494 15.825 4.82494 15.8083L8.02494 15.3583C8.17494 15.3333 8.38327 15.2333 8.48327 15.125L13.251 10.3572C13.4673 10.1409 13.3857 9.76969 13.1044 9.64964C13.0727 9.63612 13.0407 9.62235 13.0083 9.60829Z" fill="#201B30"/>
</svg>
