<svg width="32" height="32" viewBox="0 0 32 32" fill="none" xmlns="http://www.w3.org/2000/svg">
<g clip-path="url(#clip0_1_2045)">
<path d="M0 8.05246V11.5556H5.00267L0 8.05246ZM4.14578 27.5556H11.5556V22.3671L4.14578 27.5556ZM20.4444 22.368V27.5556H27.8533L20.4444 22.368ZM0 20.4445V23.9476L5.00444 20.4445H0ZM27.8551 4.44446H20.4444V9.6329L27.8551 4.44446ZM32 23.9485V20.4445H26.9947L32 23.9485ZM32 11.5556V8.05246L26.9964 11.5556H32ZM11.5556 4.44446H4.14578L11.5556 9.6329V4.44446Z" fill="#00247D"/>
<path d="M22.3468 20.4444L30.9796 26.4897C31.4012 26.0554 31.7043 25.5201 31.8596 24.9351L25.4463 20.4444H22.3468ZM11.5556 20.4444H9.65254L1.02054 26.4889C1.48365 26.96 2.07743 27.2969 2.7432 27.4533L11.5556 21.2826V20.4444ZM20.4445 11.5555H22.3477L30.9796 5.51108C30.5086 5.0331 29.9115 4.69865 29.2579 4.54663L20.4445 10.7173V11.5555ZM9.65254 11.5555L1.02054 5.51108C0.599162 5.94572 0.295928 6.48089 0.139648 7.06574L6.55298 11.5555H9.65254Z" fill="#CF1B2B"/>
<path d="M32 18.6667H18.6667V27.5556H20.4444V22.368L27.8533 27.5556H28.4444C28.9167 27.5556 29.3842 27.4614 29.8195 27.2784C30.2548 27.0954 30.6492 26.8273 30.9796 26.4898L22.3467 20.4445H25.4462L31.8596 24.9351C31.9422 24.6356 32 24.3253 32 24V23.9485L26.9947 20.4445H32V18.6667ZM0 18.6667V20.4445H5.00444L0 23.9476V24C0 24.9698 0.390222 25.8471 1.02044 26.4889L9.65244 20.4445H11.5556V21.2827L2.74311 27.4525C3.00444 27.5147 3.27467 27.5556 3.55556 27.5556H4.14578L11.5556 22.3671V27.5556H13.3333V18.6667H0ZM32 8.00001C32.0005 7.06844 31.6339 6.17419 30.9796 5.51112L22.3476 11.5556H20.4444V10.7173L29.2578 4.54668C28.9915 4.48137 28.7186 4.44707 28.4444 4.44446H27.8551L20.4444 9.6329V4.44446H18.6667V13.3333H32V11.5556H26.9964L32 8.05246V8.00001ZM11.5556 4.44446V9.6329L4.14578 4.44446H3.55556C3.08322 4.44425 2.61561 4.53851 2.18025 4.7217C1.74488 4.90488 1.35055 5.17329 1.02044 5.51112L9.65244 11.5556H6.55289L0.139556 7.06579C0.0513602 7.36953 0.00442081 7.68376 0 8.00001L0 8.05246L5.00267 11.5556H0V13.3333H13.3333V4.44446H11.5556Z" fill="#EEEEEE"/>
<path d="M18.6667 13.3333V4.44446H13.3333V13.3333H0V18.6667H13.3333V27.5556H18.6667V18.6667H32V13.3333H18.6667Z" fill="#CF1B2B"/>
</g>
<defs>
<clipPath id="clip0_1_2045">
<rect width="32" height="32" fill="white"/>
</clipPath>
</defs>
</svg>
