<svg width="28" height="28" viewBox="0 0 28 28" fill="none" xmlns="http://www.w3.org/2000/svg">
<path d="M25.9733 2.02656C24.8133 0.86656 23.1733 0.413227 21.5867 0.813227L8.51999 4.07989C6.31999 4.62656 4.62665 6.33323 4.07999 8.51989L0.813319 21.5999C0.413319 23.1866 0.866652 24.8266 2.02665 25.9866C2.90665 26.8532 4.06665 27.3332 5.26665 27.3332C5.63999 27.3332 6.02665 27.2932 6.39999 27.1866L19.48 23.9199C21.6667 23.3732 23.3733 21.6799 23.92 19.4799L27.1867 6.39989C27.5867 4.81323 27.1333 3.17323 25.9733 2.02656ZM14 19.1732C11.1467 19.1732 8.82665 16.8532 8.82665 13.9999C8.82665 11.1466 11.1467 8.82656 14 8.82656C16.8533 8.82656 19.1733 11.1466 19.1733 13.9999C19.1733 16.8532 16.8533 19.1732 14 19.1732Z" fill="#292D32"/>
</svg>
