<svg width="296" height="60" viewBox="0 0 296 60" fill="none" xmlns="http://www.w3.org/2000/svg">
<path d="M7.22311 42.2733C7.10733 43.5083 7.02608 45.6939 7.7553 46.6242C7.7553 46.6242 7.41202 44.2233 10.4894 41.2109C11.7284 39.9983 12.0148 38.3489 11.5822 37.1119C11.3364 36.4111 10.8875 35.8322 10.4975 35.428C10.27 35.1903 10.4447 34.7983 10.7758 34.8125C12.7786 34.9019 16.0245 35.4584 17.4037 38.9197C18.009 40.4391 18.0537 42.0092 17.7653 43.6058C17.5825 44.6255 16.9325 46.8924 18.4153 47.1706C19.4736 47.3697 19.9855 46.5288 20.215 45.9234C20.3105 45.6716 20.6415 45.6086 20.8203 45.8097C22.6078 47.843 22.7601 50.2378 22.3905 52.2995C21.6755 56.2849 17.6394 59.1855 13.6297 59.1855C8.62061 59.1855 4.63326 56.3194 3.59936 51.1316C3.18295 49.0374 3.3942 44.8936 6.62389 41.9686C6.86358 41.7492 7.25561 41.9442 7.22311 42.2733Z" fill="url(#paint0_radial_76_3825)"/>
<path d="M15.4599 49.7259C13.6135 47.3494 14.4402 44.6376 14.8931 43.557C14.9541 43.4148 14.7916 43.2808 14.6636 43.3681C13.8694 43.9084 12.2424 45.18 11.4847 46.9695C10.4589 49.3887 10.532 50.5729 11.1394 52.0192C11.505 52.8906 11.0805 53.0754 10.8672 53.1079C10.66 53.1404 10.4691 53.0023 10.3167 52.8581C9.87847 52.4373 9.56616 51.9028 9.41486 51.3144C9.38236 51.1884 9.21783 51.1539 9.14267 51.2575C8.57392 52.0436 8.27939 53.305 8.26517 54.1967C8.22049 56.9531 10.4975 59.1875 13.2519 59.1875C16.7233 59.1875 19.2522 55.3484 17.2575 52.139C16.6786 51.2047 16.1342 50.5933 15.4599 49.7259Z" fill="url(#paint1_radial_76_3825)"/>
<path d="M38.5562 14.3641C38.4672 15.3141 38.4047 16.9954 38.9656 17.711C38.9656 17.711 38.7016 15.8641 41.0687 13.5469C42.0219 12.6141 42.2422 11.3454 41.9094 10.3938C41.7203 9.85473 41.375 9.40942 41.075 9.09848C40.9 8.91567 41.0344 8.61411 41.2891 8.62505C42.8297 8.6938 45.3266 9.12192 46.3875 11.7844C46.8531 12.9532 46.8875 14.161 46.6656 15.3891C46.525 16.1735 46.025 17.9172 47.1656 18.1313C47.9797 18.2844 48.3734 17.6375 48.55 17.1719C48.6234 16.9782 48.8781 16.9297 49.0156 17.0844C50.3906 18.6485 50.5078 20.4907 50.2234 22.0766C49.6734 25.1422 46.5687 27.3735 43.4844 27.3735C39.6312 27.3735 36.5641 25.1688 35.7687 21.1782C35.4484 19.5672 35.6109 16.3797 38.0953 14.1297C38.2797 13.961 38.5812 14.111 38.5562 14.3641Z" fill="url(#paint2_radial_76_3825)"/>
<path d="M44.8922 20.0969C43.4719 18.2688 44.1078 16.1829 44.4562 15.3516C44.5031 15.2422 44.3781 15.1391 44.2797 15.2063C43.6687 15.6219 42.4172 16.6 41.8344 17.9766C41.0453 19.8375 41.1015 20.7485 41.5687 21.861C41.85 22.5313 41.5234 22.6735 41.3594 22.6985C41.2 22.7235 41.0531 22.6172 40.9359 22.5063C40.5988 22.1826 40.3586 21.7714 40.2422 21.3188C40.2172 21.2219 40.0906 21.1954 40.0328 21.275C39.5953 21.8797 39.3687 22.85 39.3578 23.536C39.3234 25.6563 41.075 27.375 43.1937 27.375C45.864 27.375 47.8094 24.4219 46.275 21.9532C45.8297 21.2344 45.4109 20.7641 44.8922 20.0969Z" fill="url(#paint3_radial_76_3825)"/>
<path d="M236.556 14.3641C236.467 15.3141 236.405 16.9954 236.966 17.711C236.966 17.711 236.702 15.8641 239.069 13.5469C240.022 12.6141 240.242 11.3454 239.909 10.3938C239.72 9.85473 239.375 9.40942 239.075 9.09848C238.9 8.91567 239.034 8.61411 239.289 8.62505C240.83 8.6938 243.327 9.12192 244.387 11.7844C244.853 12.9532 244.887 14.161 244.666 15.3891C244.525 16.1735 244.025 17.9172 245.166 18.1313C245.98 18.2844 246.373 17.6375 246.55 17.1719C246.623 16.9782 246.878 16.9297 247.016 17.0844C248.391 18.6485 248.508 20.4907 248.223 22.0766C247.673 25.1422 244.569 27.3735 241.484 27.3735C237.631 27.3735 234.564 25.1688 233.769 21.1782C233.448 19.5672 233.611 16.3797 236.095 14.1297C236.28 13.961 236.581 14.111 236.556 14.3641Z" fill="url(#paint4_radial_76_3825)"/>
<path d="M242.892 20.0969C241.472 18.2688 242.108 16.1829 242.456 15.3516C242.503 15.2422 242.378 15.1391 242.28 15.2063C241.669 15.6219 240.417 16.6 239.834 17.9766C239.045 19.8375 239.102 20.7485 239.569 21.861C239.85 22.5313 239.523 22.6735 239.359 22.6985C239.2 22.7235 239.053 22.6172 238.936 22.5063C238.599 22.1826 238.359 21.7714 238.242 21.3188C238.217 21.2219 238.091 21.1954 238.033 21.275C237.595 21.8797 237.369 22.85 237.358 23.536C237.323 25.6563 239.075 27.375 241.194 27.375C243.864 27.375 245.809 24.4219 244.275 21.9532C243.83 21.2344 243.411 20.7641 242.892 20.0969Z" fill="url(#paint5_radial_76_3825)"/>
<path d="M77.9453 35.9551C77.834 37.1426 77.7559 39.2441 78.457 40.1387C78.457 40.1387 78.1269 37.8301 81.0859 34.9336C82.2773 33.7676 82.5527 32.1816 82.1367 30.9922C81.9004 30.3184 81.4687 29.7617 81.0937 29.373C80.875 29.1445 81.043 28.7676 81.3613 28.7812C83.2871 28.8672 86.4082 29.4023 87.7344 32.7305C88.3164 34.1914 88.3594 35.7012 88.082 37.2363C87.9062 38.2168 87.2812 40.3965 88.707 40.6641C89.7246 40.8555 90.2168 40.0469 90.4375 39.4648C90.5293 39.2227 90.8477 39.1621 91.0195 39.3555C92.7383 41.3105 92.8848 43.6133 92.5293 45.5957C91.8418 49.4277 87.9609 52.2168 84.1055 52.2168C79.2891 52.2168 75.4551 49.4609 74.4609 44.4727C74.0605 42.459 74.2637 38.4746 77.3691 35.6621C77.5996 35.4512 77.9766 35.6387 77.9453 35.9551Z" fill="url(#paint6_radial_76_3825)"/>
<path d="M85.8652 43.1211C84.0899 40.8359 84.8848 38.2285 85.3203 37.1894C85.3789 37.0527 85.2227 36.9238 85.0996 37.0078C84.3359 37.5273 82.7715 38.75 82.043 40.4707C81.0567 42.7968 81.127 43.9355 81.7109 45.3261C82.0625 46.164 81.6543 46.3418 81.4492 46.373C81.25 46.4043 81.0664 46.2715 80.9199 46.1328C80.4985 45.7282 80.1982 45.2142 80.0527 44.6484C80.0215 44.5273 79.8633 44.4941 79.791 44.5937C79.2442 45.3496 78.9609 46.5625 78.9473 47.4199C78.9043 50.0703 81.0938 52.2187 83.7422 52.2187C87.0801 52.2187 89.5117 48.5273 87.5938 45.4414C87.0371 44.5429 86.5137 43.955 85.8652 43.1211Z" fill="url(#paint7_radial_76_3825)"/>
<path d="M203.945 29.9551C203.834 31.1426 203.756 33.2441 204.457 34.1387C204.457 34.1387 204.127 31.8301 207.086 28.9336C208.277 27.7676 208.553 26.1816 208.137 24.9922C207.9 24.3184 207.469 23.7617 207.094 23.373C206.875 23.1445 207.043 22.7676 207.361 22.7812C209.287 22.8672 212.408 23.4023 213.734 26.7305C214.316 28.1914 214.359 29.7012 214.082 31.2363C213.906 32.2168 213.281 34.3965 214.707 34.6641C215.725 34.8555 216.217 34.0469 216.437 33.4648C216.529 33.2227 216.848 33.1621 217.02 33.3555C218.738 35.3105 218.885 37.6133 218.529 39.5957C217.842 43.4277 213.961 46.2168 210.105 46.2168C205.289 46.2168 201.455 43.4609 200.461 38.4727C200.061 36.459 200.264 32.4746 203.369 29.6621C203.6 29.4512 203.977 29.6387 203.945 29.9551Z" fill="url(#paint8_radial_76_3825)"/>
<path d="M211.865 37.1211C210.09 34.8359 210.885 32.2285 211.32 31.1894C211.379 31.0527 211.223 30.9238 211.1 31.0078C210.336 31.5273 208.771 32.75 208.043 34.4707C207.057 36.7968 207.127 37.9355 207.711 39.3261C208.063 40.164 207.654 40.3418 207.449 40.373C207.25 40.4043 207.066 40.2715 206.92 40.1328C206.499 39.7282 206.198 39.2142 206.053 38.6484C206.021 38.5273 205.863 38.4941 205.791 38.5937C205.244 39.3496 204.961 40.5625 204.947 41.4199C204.904 44.0703 207.094 46.2187 209.742 46.2187C213.08 46.2187 215.512 42.5273 213.594 39.4414C213.037 38.5429 212.514 37.955 211.865 37.1211Z" fill="url(#paint9_radial_76_3825)"/>
<path d="M277.945 39.9551C277.834 41.1426 277.756 43.2441 278.457 44.1387C278.457 44.1387 278.127 41.8301 281.086 38.9336C282.277 37.7676 282.553 36.1816 282.137 34.9922C281.9 34.3184 281.469 33.7617 281.094 33.373C280.875 33.1445 281.043 32.7676 281.361 32.7812C283.287 32.8672 286.408 33.4023 287.734 36.7305C288.316 38.1914 288.359 39.7012 288.082 41.2363C287.906 42.2168 287.281 44.3965 288.707 44.6641C289.725 44.8555 290.217 44.0469 290.437 43.4648C290.529 43.2227 290.848 43.1621 291.02 43.3555C292.738 45.3105 292.885 47.6133 292.529 49.5957C291.842 53.4277 287.961 56.2168 284.105 56.2168C279.289 56.2168 275.455 53.4609 274.461 48.4727C274.061 46.459 274.264 42.4746 277.369 39.6621C277.6 39.4512 277.977 39.6387 277.945 39.9551Z" fill="url(#paint10_radial_76_3825)"/>
<path d="M285.865 47.1211C284.09 44.8359 284.885 42.2285 285.32 41.1894C285.379 41.0527 285.223 40.9238 285.1 41.0078C284.336 41.5273 282.771 42.75 282.043 44.4707C281.057 46.7968 281.127 47.9355 281.711 49.3261C282.063 50.164 281.654 50.3418 281.449 50.373C281.25 50.4043 281.066 50.2715 280.92 50.1328C280.499 49.7282 280.198 49.2142 280.053 48.6484C280.021 48.5273 279.863 48.4941 279.791 48.5937C279.244 49.3496 278.961 50.5625 278.947 51.4199C278.904 54.0703 281.094 56.2187 283.742 56.2187C287.08 56.2187 289.512 52.5273 287.594 49.4414C287.037 48.5429 286.514 47.955 285.865 47.1211Z" fill="url(#paint11_radial_76_3825)"/>
<path d="M122.167 7.77302C122.1 8.48552 122.054 9.74646 122.474 10.2832C122.474 10.2832 122.276 8.89802 124.052 7.16013C124.766 6.46052 124.932 5.50896 124.682 4.79529C124.54 4.39099 124.281 4.057 124.056 3.8238C123.925 3.68669 124.026 3.46052 124.217 3.46872C125.372 3.52029 127.245 3.84138 128.041 5.83825C128.39 6.71482 128.416 7.62068 128.249 8.54177C128.144 9.13005 127.769 10.4379 128.624 10.5984C129.235 10.7133 129.53 10.2281 129.662 9.87888C129.718 9.73357 129.909 9.69724 130.012 9.81325C131.043 10.9863 131.131 12.3679 130.918 13.5574C130.505 15.8566 128.177 17.5301 125.863 17.5301C122.973 17.5301 120.673 15.8765 120.077 12.8836C119.836 11.6754 119.958 9.28474 121.821 7.59724C121.96 7.47068 122.186 7.58318 122.167 7.77302Z" fill="url(#paint12_radial_76_3825)"/>
<path d="M126.919 12.0727C125.854 10.7016 126.331 9.13711 126.592 8.51368C126.627 8.43165 126.534 8.3543 126.46 8.40469C126.002 8.71641 125.063 9.45001 124.626 10.4824C124.034 11.8781 124.076 12.5613 124.427 13.3957C124.638 13.8984 124.393 14.0051 124.27 14.0238C124.15 14.0426 124.04 13.9629 123.952 13.8797C123.699 13.6369 123.519 13.3285 123.432 12.9891C123.413 12.9164 123.318 12.8965 123.275 12.9563C122.947 13.4098 122.777 14.1375 122.768 14.652C122.743 16.2422 124.056 17.5313 125.645 17.5313C127.648 17.5313 129.107 15.3164 127.956 13.4648C127.622 12.9258 127.308 12.5731 126.919 12.0727Z" fill="url(#paint13_radial_76_3825)"/>
<path d="M174.167 4.77302C174.1 5.48552 174.054 6.74646 174.474 7.28318C174.474 7.28318 174.276 5.89802 176.052 4.16013C176.766 3.46052 176.932 2.50896 176.682 1.79529C176.54 1.39099 176.281 1.057 176.056 0.823801C175.925 0.686692 176.026 0.46052 176.217 0.468723C177.372 0.520285 179.245 0.841379 180.041 2.83825C180.39 3.71482 180.416 4.62068 180.249 5.54177C180.144 6.13005 179.769 7.43786 180.624 7.59841C181.235 7.71325 181.53 7.2281 181.662 6.87888C181.718 6.73357 181.909 6.69724 182.012 6.81325C183.043 7.9863 183.131 9.36794 182.918 10.5574C182.505 12.8566 180.177 14.5301 177.863 14.5301C174.973 14.5301 172.673 12.8765 172.077 9.88357C171.836 8.67536 171.958 6.28474 173.821 4.59724C173.96 4.47068 174.186 4.58318 174.167 4.77302Z" fill="url(#paint14_radial_76_3825)"/>
<path d="M178.919 9.07266C177.854 7.70157 178.331 6.13711 178.592 5.51368C178.627 5.43165 178.534 5.3543 178.46 5.40469C178.002 5.71641 177.063 6.45001 176.626 7.48243C176.034 8.87813 176.076 9.56133 176.427 10.3957C176.638 10.8984 176.393 11.0051 176.27 11.0238C176.15 11.0426 176.04 10.9629 175.952 10.8797C175.699 10.6369 175.519 10.3285 175.432 9.98907C175.413 9.91641 175.318 9.89649 175.275 9.95625C174.947 10.4098 174.777 11.1375 174.768 11.652C174.743 13.2422 176.056 14.5313 177.645 14.5313C179.648 14.5313 181.107 12.3164 179.956 10.4648C179.622 9.92579 179.308 9.57305 178.919 9.07266Z" fill="url(#paint15_radial_76_3825)"/>
<defs>
<radialGradient id="paint0_radial_76_3825" cx="0" cy="0" r="1" gradientUnits="userSpaceOnUse" gradientTransform="translate(12.6376 59.2486) rotate(-179.751) scale(14.3381 23.526)">
<stop offset="0.314" stop-color="#FF9800"/>
<stop offset="0.662" stop-color="#FF6D00"/>
<stop offset="0.972" stop-color="#F44336"/>
</radialGradient>
<radialGradient id="paint1_radial_76_3825" cx="0" cy="0" r="1" gradientUnits="userSpaceOnUse" gradientTransform="translate(13.4428 44.9806) rotate(90.5787) scale(15.0021 11.2902)">
<stop offset="0.214" stop-color="#FFF176"/>
<stop offset="0.328" stop-color="#FFF27D"/>
<stop offset="0.487" stop-color="#FFF48F"/>
<stop offset="0.672" stop-color="#FFF7AD"/>
<stop offset="0.793" stop-color="#FFF9C4"/>
<stop offset="0.822" stop-color="#FFF8BD" stop-opacity="0.804"/>
<stop offset="0.863" stop-color="#FFF6AB" stop-opacity="0.529"/>
<stop offset="0.91" stop-color="#FFF38D" stop-opacity="0.209"/>
<stop offset="0.941" stop-color="#FFF176" stop-opacity="0"/>
</radialGradient>
<radialGradient id="paint2_radial_76_3825" cx="0" cy="0" r="1" gradientUnits="userSpaceOnUse" gradientTransform="translate(42.7212 27.4221) rotate(-179.751) scale(11.0293 18.0969)">
<stop offset="0.314" stop-color="#FF9800"/>
<stop offset="0.662" stop-color="#FF6D00"/>
<stop offset="0.972" stop-color="#F44336"/>
</radialGradient>
<radialGradient id="paint3_radial_76_3825" cx="0" cy="0" r="1" gradientUnits="userSpaceOnUse" gradientTransform="translate(43.3406 16.4467) rotate(90.5787) scale(11.5401 8.68476)">
<stop offset="0.214" stop-color="#FFF176"/>
<stop offset="0.328" stop-color="#FFF27D"/>
<stop offset="0.487" stop-color="#FFF48F"/>
<stop offset="0.672" stop-color="#FFF7AD"/>
<stop offset="0.793" stop-color="#FFF9C4"/>
<stop offset="0.822" stop-color="#FFF8BD" stop-opacity="0.804"/>
<stop offset="0.863" stop-color="#FFF6AB" stop-opacity="0.529"/>
<stop offset="0.91" stop-color="#FFF38D" stop-opacity="0.209"/>
<stop offset="0.941" stop-color="#FFF176" stop-opacity="0"/>
</radialGradient>
<radialGradient id="paint4_radial_76_3825" cx="0" cy="0" r="1" gradientUnits="userSpaceOnUse" gradientTransform="translate(240.721 27.4221) rotate(-179.751) scale(11.0293 18.0969)">
<stop offset="0.314" stop-color="#FF9800"/>
<stop offset="0.662" stop-color="#FF6D00"/>
<stop offset="0.972" stop-color="#F44336"/>
</radialGradient>
<radialGradient id="paint5_radial_76_3825" cx="0" cy="0" r="1" gradientUnits="userSpaceOnUse" gradientTransform="translate(241.341 16.4467) rotate(90.5787) scale(11.5401 8.68476)">
<stop offset="0.214" stop-color="#FFF176"/>
<stop offset="0.328" stop-color="#FFF27D"/>
<stop offset="0.487" stop-color="#FFF48F"/>
<stop offset="0.672" stop-color="#FFF7AD"/>
<stop offset="0.793" stop-color="#FFF9C4"/>
<stop offset="0.822" stop-color="#FFF8BD" stop-opacity="0.804"/>
<stop offset="0.863" stop-color="#FFF6AB" stop-opacity="0.529"/>
<stop offset="0.91" stop-color="#FFF38D" stop-opacity="0.209"/>
<stop offset="0.941" stop-color="#FFF176" stop-opacity="0"/>
</radialGradient>
<radialGradient id="paint6_radial_76_3825" cx="0" cy="0" r="1" gradientUnits="userSpaceOnUse" gradientTransform="translate(83.1515 52.2775) rotate(-179.751) scale(13.7867 22.6211)">
<stop offset="0.314" stop-color="#FF9800"/>
<stop offset="0.662" stop-color="#FF6D00"/>
<stop offset="0.972" stop-color="#F44336"/>
</radialGradient>
<radialGradient id="paint7_radial_76_3825" cx="0" cy="0" r="1" gradientUnits="userSpaceOnUse" gradientTransform="translate(83.9258 38.5582) rotate(90.5787) scale(14.4251 10.856)">
<stop offset="0.214" stop-color="#FFF176"/>
<stop offset="0.328" stop-color="#FFF27D"/>
<stop offset="0.487" stop-color="#FFF48F"/>
<stop offset="0.672" stop-color="#FFF7AD"/>
<stop offset="0.793" stop-color="#FFF9C4"/>
<stop offset="0.822" stop-color="#FFF8BD" stop-opacity="0.804"/>
<stop offset="0.863" stop-color="#FFF6AB" stop-opacity="0.529"/>
<stop offset="0.91" stop-color="#FFF38D" stop-opacity="0.209"/>
<stop offset="0.941" stop-color="#FFF176" stop-opacity="0"/>
</radialGradient>
<radialGradient id="paint8_radial_76_3825" cx="0" cy="0" r="1" gradientUnits="userSpaceOnUse" gradientTransform="translate(209.152 46.2775) rotate(-179.751) scale(13.7867 22.6211)">
<stop offset="0.314" stop-color="#FF9800"/>
<stop offset="0.662" stop-color="#FF6D00"/>
<stop offset="0.972" stop-color="#F44336"/>
</radialGradient>
<radialGradient id="paint9_radial_76_3825" cx="0" cy="0" r="1" gradientUnits="userSpaceOnUse" gradientTransform="translate(209.926 32.5582) rotate(90.5787) scale(14.4251 10.856)">
<stop offset="0.214" stop-color="#FFF176"/>
<stop offset="0.328" stop-color="#FFF27D"/>
<stop offset="0.487" stop-color="#FFF48F"/>
<stop offset="0.672" stop-color="#FFF7AD"/>
<stop offset="0.793" stop-color="#FFF9C4"/>
<stop offset="0.822" stop-color="#FFF8BD" stop-opacity="0.804"/>
<stop offset="0.863" stop-color="#FFF6AB" stop-opacity="0.529"/>
<stop offset="0.91" stop-color="#FFF38D" stop-opacity="0.209"/>
<stop offset="0.941" stop-color="#FFF176" stop-opacity="0"/>
</radialGradient>
<radialGradient id="paint10_radial_76_3825" cx="0" cy="0" r="1" gradientUnits="userSpaceOnUse" gradientTransform="translate(283.152 56.2775) rotate(-179.751) scale(13.7867 22.6211)">
<stop offset="0.314" stop-color="#FF9800"/>
<stop offset="0.662" stop-color="#FF6D00"/>
<stop offset="0.972" stop-color="#F44336"/>
</radialGradient>
<radialGradient id="paint11_radial_76_3825" cx="0" cy="0" r="1" gradientUnits="userSpaceOnUse" gradientTransform="translate(283.926 42.5582) rotate(90.5787) scale(14.4251 10.856)">
<stop offset="0.214" stop-color="#FFF176"/>
<stop offset="0.328" stop-color="#FFF27D"/>
<stop offset="0.487" stop-color="#FFF48F"/>
<stop offset="0.672" stop-color="#FFF7AD"/>
<stop offset="0.793" stop-color="#FFF9C4"/>
<stop offset="0.822" stop-color="#FFF8BD" stop-opacity="0.804"/>
<stop offset="0.863" stop-color="#FFF6AB" stop-opacity="0.529"/>
<stop offset="0.91" stop-color="#FFF38D" stop-opacity="0.209"/>
<stop offset="0.941" stop-color="#FFF176" stop-opacity="0"/>
</radialGradient>
<radialGradient id="paint12_radial_76_3825" cx="0" cy="0" r="1" gradientUnits="userSpaceOnUse" gradientTransform="translate(125.291 17.5665) rotate(-179.751) scale(8.27199 13.5727)">
<stop offset="0.314" stop-color="#FF9800"/>
<stop offset="0.662" stop-color="#FF6D00"/>
<stop offset="0.972" stop-color="#F44336"/>
</radialGradient>
<radialGradient id="paint13_radial_76_3825" cx="0" cy="0" r="1" gradientUnits="userSpaceOnUse" gradientTransform="translate(125.755 9.33497) rotate(90.5787) scale(8.65504 6.51357)">
<stop offset="0.214" stop-color="#FFF176"/>
<stop offset="0.328" stop-color="#FFF27D"/>
<stop offset="0.487" stop-color="#FFF48F"/>
<stop offset="0.672" stop-color="#FFF7AD"/>
<stop offset="0.793" stop-color="#FFF9C4"/>
<stop offset="0.822" stop-color="#FFF8BD" stop-opacity="0.804"/>
<stop offset="0.863" stop-color="#FFF6AB" stop-opacity="0.529"/>
<stop offset="0.91" stop-color="#FFF38D" stop-opacity="0.209"/>
<stop offset="0.941" stop-color="#FFF176" stop-opacity="0"/>
</radialGradient>
<radialGradient id="paint14_radial_76_3825" cx="0" cy="0" r="1" gradientUnits="userSpaceOnUse" gradientTransform="translate(177.291 14.5665) rotate(-179.751) scale(8.27199 13.5727)">
<stop offset="0.314" stop-color="#FF9800"/>
<stop offset="0.662" stop-color="#FF6D00"/>
<stop offset="0.972" stop-color="#F44336"/>
</radialGradient>
<radialGradient id="paint15_radial_76_3825" cx="0" cy="0" r="1" gradientUnits="userSpaceOnUse" gradientTransform="translate(177.755 6.33497) rotate(90.5787) scale(8.65504 6.51357)">
<stop offset="0.214" stop-color="#FFF176"/>
<stop offset="0.328" stop-color="#FFF27D"/>
<stop offset="0.487" stop-color="#FFF48F"/>
<stop offset="0.672" stop-color="#FFF7AD"/>
<stop offset="0.793" stop-color="#FFF9C4"/>
<stop offset="0.822" stop-color="#FFF8BD" stop-opacity="0.804"/>
<stop offset="0.863" stop-color="#FFF6AB" stop-opacity="0.529"/>
<stop offset="0.91" stop-color="#FFF38D" stop-opacity="0.209"/>
<stop offset="0.941" stop-color="#FFF176" stop-opacity="0"/>
</radialGradient>
</defs>
</svg>
