<svg width="48" height="48" viewBox="0 0 48 48" fill="none" xmlns="http://www.w3.org/2000/svg">
<rect x="0.000244141" y="13.6572" width="47.9997" height="12.0501" rx="2.3431" fill="#FAB021"/>
<path d="M3.84155 25.7073H44.3634V45.6569C44.3634 46.951 43.3144 48 42.0203 48H6.18465C4.89059 48 3.84155 46.951 3.84155 45.6569V25.7073Z" fill="#FAB021"/>
<rect width="9.59994" height="22.2928" transform="translate(19.3013 25.7073)" fill="#FD6806"/>
<rect width="9.80204" height="12.0501" transform="translate(19.0999 13.6572)" fill="#FD6806"/>
<path opacity="0.5" d="M3.73901 25.7073H44.3619V32.8369L3.73901 29.6236V25.7073Z" fill="#D83A25"/>
<path d="M32.1351 3.3518C31.4883 5.27982 27.6214 9.41034 25.7688 11.2346L27.6888 13.6948H37.5414C37.7603 13.7283 38.663 13.2229 40.5224 10.9333C42.7455 7.77018 36.6319 2.95013 36.0256 2.44804C35.4193 1.94595 32.9435 0.941775 32.1351 3.3518Z" fill="#FF8A20"/>
<path d="M13.3876 0.289995C16.8638 -1.83886 23.4928 8.27321 27.6864 13.6456H12.7307C11.9728 13.4782 10.0428 12.6816 8.3855 10.8339C6.31393 8.52425 9.04234 2.95107 13.3876 0.289995Z" fill="#FD6806"/>
<path d="M23.8496 8.63617C21.1415 11.97 13.8455 12.7533 10.6624 12.7031C10.6624 12.7834 11.7739 13.406 12.7339 13.6571H27.6896L23.8496 8.63617Z" fill="#E84614"/>
<path d="M38.652 12.9035C33.6499 13.3554 26.9805 10.2926 26.8289 10.2424L25.8184 11.1964L27.6878 13.6566H37.6768C37.6768 13.6566 38.0437 13.4689 38.2478 13.3052C38.4214 13.1658 38.652 12.9035 38.652 12.9035Z" fill="#E84614"/>
</svg>
