<svg width="32" height="32" viewBox="0 0 32 32" fill="none" xmlns="http://www.w3.org/2000/svg">
<g clip-path="url(#clip0_1_2014)">
<path d="M31.9999 24C31.9999 24.943 31.6253 25.8474 30.9585 26.5142C30.2917 27.181 29.3874 27.5556 28.4444 27.5556H21.3333V4.44446H28.4444C29.3874 4.44446 30.2917 4.81906 30.9585 5.48586C31.6253 6.15265 31.9999 7.05702 31.9999 8.00001V24Z" fill="#CE2B37"/>
<path d="M3.55556 4.44446C2.61256 4.44446 1.70819 4.81906 1.0414 5.48586C0.374602 6.15265 0 7.05702 0 8.00001L0 24C0 24.943 0.374602 25.8474 1.0414 26.5142C1.70819 27.181 2.61256 27.5556 3.55556 27.5556H10.6667V4.44446H3.55556Z" fill="#009246"/>
<path d="M10.6667 4.44446H21.3334V27.5556H10.6667V4.44446Z" fill="#EEEEEE"/>
</g>
<defs>
<clipPath id="clip0_1_2014">
<rect width="32" height="32" fill="white"/>
</clipPath>
</defs>
</svg>
