<svg width="16" height="19" viewBox="0 0 16 19" fill="none" xmlns="http://www.w3.org/2000/svg">
<path d="M1.69991 4.29372C1.60721 4.38623 1.53366 4.49612 1.48348 4.6171C1.4333 4.73807 1.40747 4.86775 1.40747 4.99872C1.40747 5.12969 1.4333 5.25937 1.48348 5.38034C1.53366 5.50132 1.60721 5.61121 1.69991 5.70372L5.57991 9.58372L1.69991 13.4637C1.60733 13.5563 1.53389 13.6662 1.48379 13.7872C1.43368 13.9081 1.40789 14.0378 1.40789 14.1687C1.40789 14.2997 1.43368 14.4293 1.48379 14.5503C1.53389 14.6712 1.60733 14.7811 1.69991 14.8737C1.7925 14.9663 1.90241 15.0397 2.02337 15.0898C2.14434 15.14 2.27398 15.1657 2.40491 15.1657C2.53585 15.1657 2.66549 15.14 2.78646 15.0898C2.90742 15.0397 3.01733 14.9663 3.10991 14.8737L7.69991 10.2837C7.79262 10.1912 7.86617 10.0813 7.91635 9.96034C7.96653 9.83937 7.99236 9.70969 7.99236 9.57872C7.99236 9.44775 7.96653 9.31807 7.91635 9.1971C7.86617 9.07612 7.79262 8.96623 7.69991 8.87372L3.11991 4.29372C2.72991 3.90372 2.08991 3.90372 1.69991 4.29372Z" fill="#F7625F"/>
<path d="M8.29 4.29376C8.1973 4.38628 8.12375 4.49616 8.07357 4.61714C8.02339 4.73811 7.99756 4.86779 7.99756 4.99876C7.99756 5.12973 8.02339 5.25941 8.07357 5.38039C8.12375 5.50136 8.1973 5.61125 8.29 5.70376L12.17 9.58376L8.29 13.4638C8.10303 13.6507 7.99798 13.9043 7.99798 14.1688C7.99798 14.4332 8.10303 14.6868 8.29 14.8738C8.47698 15.0607 8.73058 15.1658 8.995 15.1658C9.25943 15.1658 9.51303 15.0607 9.7 14.8738L14.29 10.2838C14.3827 10.1912 14.4563 10.0814 14.5064 9.96039C14.5566 9.83941 14.5824 9.70973 14.5824 9.57876C14.5824 9.44779 14.5566 9.31811 14.5064 9.19714C14.4563 9.07616 14.3827 8.96628 14.29 8.87376L9.7 4.28376C9.32 3.90376 8.68 3.90376 8.29 4.29376Z" fill="#F7625F"/>
</svg>
