<svg width="32" height="32" viewBox="0 0 32 32" fill="none" xmlns="http://www.w3.org/2000/svg">
<path d="M27.4933 11.2667C26.0933 5.10671 20.72 2.33337 16 2.33337C16 2.33337 16 2.33337 15.9867 2.33337C11.28 2.33337 5.89334 5.09337 4.49334 11.2534C2.93334 18.1334 7.14667 23.96 10.96 27.6267C12.3733 28.9867 14.1867 29.6667 16 29.6667C17.8133 29.6667 19.6267 28.9867 21.0267 27.6267C24.84 23.96 29.0533 18.1467 27.4933 11.2667ZM16 17.9467C13.68 17.9467 11.8 16.0667 11.8 13.7467C11.8 11.4267 13.68 9.54671 16 9.54671C18.32 9.54671 20.2 11.4267 20.2 13.7467C20.2 16.0667 18.32 17.9467 16 17.9467Z" fill="url(#paint0_linear_37_1199)"/>
<defs>
<linearGradient id="paint0_linear_37_1199" x1="4.16003" y1="16" x2="27.8266" y2="16" gradientUnits="userSpaceOnUse">
<stop stop-color="#6E46FB"/>
<stop offset="0.466667" stop-color="#71D0F5"/>
<stop offset="1" stop-color="#F5B013"/>
</linearGradient>
</defs>
</svg>
