<svg width="32" height="32" viewBox="0 0 32 32" fill="none" xmlns="http://www.w3.org/2000/svg">
<path d="M24.9301 19.836L24.9327 19.8404C25.2933 20.4321 25.3552 21.1235 25.1176 21.7541C24.8742 22.3999 24.3778 22.8808 23.7412 23.09L23.7412 23.09L23.7356 23.0918C21.2551 23.9229 18.6427 24.3334 16.0267 24.3334C13.4107 24.3334 10.7999 23.9229 8.32208 23.08L8.32006 23.0793C7.57929 22.829 7.07715 22.3345 6.87476 21.7695L6.87479 21.7694L6.87191 21.7616C6.65448 21.1702 6.71528 20.4983 7.11062 19.8349C7.11106 19.8341 7.11151 19.8334 7.11195 19.8326L8.45568 17.6109L8.45978 17.6041L8.46378 17.5972C8.66512 17.2521 8.8264 16.8062 8.93663 16.4007C9.04667 15.996 9.13333 15.5306 9.13333 15.1334V11.76C9.13333 9.06476 10.7016 6.72143 12.9787 5.5887L13.2554 5.45108L13.4062 5.18139C13.9252 4.25302 14.9006 3.66669 15.9867 3.66669C17.0946 3.66669 18.041 4.23416 18.5561 5.14541L18.7113 5.41994L18.9959 5.55579C21.3164 6.66358 22.92 9.02833 22.92 11.76V15.1334C22.92 15.5306 23.0067 15.9959 23.1164 16.4013C23.2267 16.809 23.3868 17.2535 23.5836 17.6003L23.5901 17.6116L23.5968 17.6227L24.9301 19.836Z" stroke="#F7F6F4" stroke-width="2"/>
<path d="M16 28.3334C15.4516 28.3334 14.9098 28.1782 14.4496 27.8971C14.9706 27.9288 15.4977 27.9467 16.0267 27.9467C16.5394 27.9467 17.0503 27.9293 17.5553 27.8984C17.1004 28.1747 16.5677 28.3334 16 28.3334Z" stroke="#F7F6F4" stroke-width="2"/>
</svg>
