<svg width="60" height="60" viewBox="0 0 60 60" fill="none" xmlns="http://www.w3.org/2000/svg">
<path d="M26.625 47.775V12.225C26.625 8.85 25.2 7.5 21.6 7.5H12.525C8.925 7.5 7.5 8.85 7.5 12.225V47.775C7.5 51.15 8.925 52.5 12.525 52.5H21.6C25.2 52.5 26.625 51.15 26.625 47.775Z" fill="#BCC0C5"/>
<path d="M52.5 47.775V12.225C52.5 8.85 51.075 7.5 47.475 7.5H38.4C34.825 7.5 33.375 8.85 33.375 12.225V47.775C33.375 51.15 34.8 52.5 38.4 52.5H47.475C51.075 52.5 52.5 51.15 52.5 47.775Z" fill="#BCC0C5"/>
</svg>
