<svg width="32" height="32" viewBox="0 0 32 32" fill="none" xmlns="http://www.w3.org/2000/svg">
<path d="M21.5865 2.66663H10.4132C5.55984 2.66663 2.6665 5.55996 2.6665 10.4133V21.5733C2.6665 26.44 5.55984 29.3333 10.4132 29.3333H21.5732C26.4265 29.3333 29.3198 26.44 29.3198 21.5866V10.4133C29.3332 5.55996 26.4398 2.66663 21.5865 2.66663ZM14.5998 23.3466C14.2132 23.7333 13.4798 24.1066 12.9465 24.1866L9.6665 24.6533C9.5465 24.6666 9.4265 24.68 9.3065 24.68C8.75984 24.68 8.25317 24.4933 7.89317 24.1333C7.45317 23.6933 7.2665 23.0533 7.37317 22.3466L7.83984 19.0666C7.91984 18.52 8.27984 17.8 8.67984 17.4133L14.6265 11.4666C14.7332 11.7466 14.8398 12.0266 14.9865 12.3466C15.1198 12.6266 15.2665 12.92 15.4265 13.1866C15.5598 13.4133 15.7065 13.6266 15.8265 13.7866C15.9732 14.0133 16.1465 14.2266 16.2532 14.3466C16.3198 14.44 16.3732 14.5066 16.3998 14.5333C16.7332 14.9333 17.1198 15.3066 17.4532 15.5866C17.5465 15.68 17.5998 15.7333 17.6265 15.7466C17.8265 15.9066 18.0265 16.0666 18.1998 16.1866C18.4132 16.3466 18.6265 16.4933 18.8532 16.6133C19.1198 16.7733 19.4132 16.92 19.7065 17.0666C20.0132 17.2 20.2932 17.32 20.5732 17.4133L14.5998 23.3466ZM23.1598 14.7866L21.9332 16.0266C21.8532 16.1066 21.7465 16.1466 21.6398 16.1466C21.5998 16.1466 21.5465 16.1466 21.5198 16.1333C18.8132 15.36 16.6532 13.2 15.8798 10.4933C15.8398 10.3466 15.8798 10.1866 15.9865 10.0933L17.2265 8.85329C19.2532 6.82663 21.1865 6.86663 23.1732 8.85329C24.1865 9.86663 24.6798 10.84 24.6798 11.8533C24.6665 12.8133 24.1732 13.7733 23.1598 14.7866Z" fill="#6E46FB"/>
</svg>
