<svg width="210" height="27" viewBox="0 0 210 27" fill="none" xmlns="http://www.w3.org/2000/svg">
<path d="M0.0395508 -0.0866699H11.9704V27.1243H0.0395508V-0.0866699Z" fill="#71D0F5"/>
<path d="M17.0837 -0.0866185H0.039856V20.3216H17.0837C22.7316 20.3216 27.3101 15.753 27.3101 10.1173C27.3101 4.48167 22.7316 -0.0869141 17.0837 -0.0869141V-0.0866185Z" fill="#F5B013"/>
<path d="M0.0395508 -0.0866699H11.9704V20.3215H0.0395508V-0.0866699Z" fill="#F9F9F9"/>
<path d="M33.0396 -0.124878H44.9704V27.0861H33.0396V-0.124878Z" fill="#F5B013"/>
<path d="M33.0396 20.2836H60.3098V27.0865H33.0396V20.2836Z" fill="#71D0F5"/>
<path d="M33.0396 20.2836H44.9704V27.0865H33.0396V20.2836Z" fill="#F9F9F9"/>
<path d="M93.427 27.0856L79.7925 -0.124634L66.1575 27.0856H93.427Z" fill="#F5B013"/>
<path d="M114.498 -0.124878H126.429V27.0861H114.498V-0.124878Z" fill="#71D0F5"/>
<path d="M126.427 27.0856H99.1575V-0.124634L126.427 27.0856Z" fill="#F5B013"/>
<path d="M114.497 27.0856H126.427L114.497 15.1821V27.0856Z" fill="#F9F9F9"/>
<path d="M132.157 -0.124878H144.088V6.67795H132.157V-0.124878Z" fill="#71D0F5"/>
<path d="M132.157 10.0793H144.088V27.0864H132.157V10.0793Z" fill="#F5B013"/>
<path d="M149.61 -0.0866699H176.88V6.71615H149.61V-0.0866699Z" fill="#71D0F5"/>
<path d="M149.61 10.1175H176.88V16.9203H149.61V10.1175Z" fill="#71D0F5"/>
<path d="M149.61 -0.0866699H163.245V27.1243H149.61V-0.0866699Z" fill="#F5B013"/>
<path d="M149.61 -0.0866699H163.245V6.71615H149.61V-0.0866699Z" fill="#F9F9F9"/>
<path d="M149.61 10.1175H163.245V16.9203H149.61V10.1175Z" fill="#F9F9F9"/>
<path d="M190.36 -0.0866699H202.291V27.1243H190.36V-0.0866699Z" fill="#71D0F5"/>
<path d="M182.69 -0.0866699V6.71615C182.69 14.2304 188.794 20.3218 196.325 20.3218C203.855 20.3218 209.96 14.2304 209.96 6.71615V-0.0866699H182.69Z" fill="#F5B013"/>
<path d="M190.36 18.9542C192.162 19.8306 194.186 20.3234 196.325 20.3234C198.465 20.3234 200.489 19.8306 202.291 18.9542V-0.0848999H190.36L190.36 18.9542Z" fill="#F9F9F9"/>
</svg>
