<svg width="20" height="20" viewBox="0 0 20 20" fill="none" xmlns="http://www.w3.org/2000/svg">
<path d="M12.825 4.34166L14 6.69166C14.1584 7.01666 14.5834 7.325 14.9417 7.39166L17.0667 7.74166C18.425 7.96666 18.7417 8.95 17.7667 9.93333L16.1084 11.5917C15.8334 11.8667 15.675 12.4083 15.7667 12.8L16.2417 14.85C16.6167 16.4667 15.75 17.1 14.325 16.25L12.3334 15.0667C11.975 14.85 11.375 14.85 11.0167 15.0667L9.02503 16.25C7.60003 17.0917 6.73337 16.4667 7.10837 14.85L7.58337 12.8C7.65837 12.4 7.50003 11.8583 7.22503 11.5833L5.5667 9.925C4.5917 8.95 4.90837 7.96666 6.2667 7.73333L8.3917 7.38333C8.75003 7.325 9.17503 7.00833 9.33337 6.68333L10.5084 4.33333C11.15 3.06666 12.1834 3.06666 12.825 4.34166Z" fill="#6E46FB"/>
<path d="M6.66663 4.79166H1.66663C1.32496 4.79166 1.04163 4.50832 1.04163 4.16666C1.04163 3.82499 1.32496 3.54166 1.66663 3.54166H6.66663C7.00829 3.54166 7.29163 3.82499 7.29163 4.16666C7.29163 4.50832 7.00829 4.79166 6.66663 4.79166Z" fill="#6E46FB"/>
<path d="M4.16663 16.4583H1.66663C1.32496 16.4583 1.04163 16.175 1.04163 15.8333C1.04163 15.4916 1.32496 15.2083 1.66663 15.2083H4.16663C4.50829 15.2083 4.79163 15.4916 4.79163 15.8333C4.79163 16.175 4.50829 16.4583 4.16663 16.4583Z" fill="#6E46FB"/>
<path d="M2.49996 10.625H1.66663C1.32496 10.625 1.04163 10.3417 1.04163 10C1.04163 9.65833 1.32496 9.375 1.66663 9.375H2.49996C2.84163 9.375 3.12496 9.65833 3.12496 10C3.12496 10.3417 2.84163 10.625 2.49996 10.625Z" fill="#6E46FB"/>
</svg>
