<svg width="24" height="24" viewBox="0 0 24 24" fill="none" xmlns="http://www.w3.org/2000/svg">
<path d="M12 0.333374C5.56004 0.333374 0.333374 5.56004 0.333374 12C0.333374 18.44 5.56004 23.6667 12 23.6667C18.44 23.6667 23.6667 18.44 23.6667 12C23.6667 5.56004 18.44 0.333374 12 0.333374ZM5.70004 11.1017C5.89837 9.71337 6.51671 8.46504 7.48504 7.48504C9.81837 5.16337 13.4934 5.03504 15.99 7.06504V5.95671C15.99 5.47837 16.3867 5.08171 16.865 5.08171C17.3434 5.08171 17.74 5.47837 17.74 5.95671V9.07171C17.74 9.55004 17.3434 9.94671 16.865 9.94671H13.75C13.2717 9.94671 12.875 9.55004 12.875 9.07171C12.875 8.59337 13.2717 8.19671 13.75 8.19671H14.625C12.8167 6.93671 10.32 7.11171 8.71004 8.72171C8.01004 9.42171 7.56671 10.3317 7.41504 11.3467C7.35671 11.7784 6.98337 12.0934 6.55171 12.0934C6.50504 12.0934 6.47004 12.0934 6.42337 12.0817C5.96837 12.0234 5.63004 11.58 5.70004 11.1017ZM16.515 16.515C15.2667 17.7634 13.6334 18.3817 12 18.3817C10.5767 18.3817 9.16504 17.88 7.99837 16.935V18.0317C7.99837 18.51 7.60171 18.9067 7.12337 18.9067C6.64504 18.9067 6.24837 18.51 6.24837 18.0317V14.9167C6.24837 14.4384 6.64504 14.0417 7.12337 14.0417H10.2384C10.7167 14.0417 11.1134 14.4384 11.1134 14.9167C11.1134 15.395 10.7167 15.7917 10.2384 15.7917H9.36337C11.1717 17.0517 13.6684 16.8767 15.2784 15.2667C15.9784 14.5667 16.4217 13.6567 16.5734 12.6417C16.6434 12.1634 17.075 11.825 17.565 11.895C18.0434 11.965 18.37 12.4084 18.3117 12.8867C18.1017 14.2984 17.4834 15.5467 16.515 16.515Z" fill="#6E46FB"/>
</svg>
