<svg width="20" height="20" viewBox="0 0 20 20" fill="none" xmlns="http://www.w3.org/2000/svg">
<path d="M7.40004 3.83323C6.73337 0.949895 2.39171 0.941562 1.72504 3.83323C1.33337 5.5249 2.40837 6.95823 3.34171 7.8499C4.02504 8.49156 5.10004 8.49156 5.78337 7.8499C6.71671 6.95823 7.78337 5.5249 7.40004 3.83323ZM4.59171 5.16656C4.13337 5.16656 3.75837 4.79156 3.75837 4.33323C3.75837 3.8749 4.12504 3.4999 4.58337 3.4999H4.59171C5.05837 3.4999 5.42504 3.8749 5.42504 4.33323C5.42504 4.79156 5.05837 5.16656 4.59171 5.16656Z" fill="#201B30"/>
<path d="M18.2583 13.8332C17.5917 10.9499 13.2333 10.9416 12.5583 13.8332C12.1667 15.5249 13.2417 16.9582 14.1833 17.8499C14.8667 18.4916 15.95 18.4916 16.6333 17.8499C17.575 16.9582 18.65 15.5249 18.2583 13.8332ZM15.4417 15.1666C14.9833 15.1666 14.6083 14.7916 14.6083 14.3332C14.6083 13.8749 14.975 13.4999 15.4333 13.4999H15.4417C15.9 13.4999 16.275 13.8749 16.275 14.3332C16.275 14.7916 15.9 15.1666 15.4417 15.1666Z" fill="#201B30"/>
<path d="M9.99997 16.4583H7.76664C6.79997 16.4583 5.9583 15.875 5.62497 14.975C5.2833 14.075 5.5333 13.0833 6.2583 12.4416L12.9166 6.61663C13.3166 6.26663 13.325 5.79163 13.2083 5.46663C13.0833 5.14163 12.7666 4.79163 12.2333 4.79163H9.99997C9.6583 4.79163 9.37497 4.50829 9.37497 4.16663C9.37497 3.82496 9.6583 3.54163 9.99997 3.54163H12.2333C13.2 3.54163 14.0416 4.12496 14.375 5.02496C14.7166 5.92496 14.4666 6.91663 13.7416 7.55829L7.0833 13.3833C6.6833 13.7333 6.67497 14.2083 6.79164 14.5333C6.91664 14.8583 7.2333 15.2083 7.76664 15.2083H9.99997C10.3416 15.2083 10.625 15.4916 10.625 15.8333C10.625 16.175 10.3416 16.4583 9.99997 16.4583Z" fill="#201B30"/>
</svg>
