<svg width="32" height="32" viewBox="0 0 32 32" fill="none" xmlns="http://www.w3.org/2000/svg">
<g clip-path="url(#clip0_1_2059)">
<path d="M32 24C32 24.943 31.6254 25.8474 30.9586 26.5142C30.2918 27.181 29.3874 27.5556 28.4444 27.5556H3.55556C2.61256 27.5556 1.70819 27.181 1.0414 26.5142C0.374602 25.8474 0 24.943 0 24V8.00001C0 7.05702 0.374602 6.15265 1.0414 5.48586C1.70819 4.81906 2.61256 4.44446 3.55556 4.44446H28.4444C29.3874 4.44446 30.2918 4.81906 30.9586 5.48586C31.6254 6.15265 32 7.05702 32 8.00001V24Z" fill="#C60A1D"/>
<path d="M0 10.6667H32V21.3334H0V10.6667Z" fill="#FFC400"/>
<path d="M8 15.1111V17.7778C8 18.485 8.28095 19.1633 8.78105 19.6634C9.28115 20.1635 9.95942 20.4444 10.6667 20.4444C11.3739 20.4444 12.0522 20.1635 12.5523 19.6634C13.0524 19.1633 13.3333 18.485 13.3333 17.7778V15.1111H8Z" fill="#EA596E"/>
<path d="M10.6665 14.2223H13.3332V16.889H10.6665V14.2223Z" fill="#F4A2B2"/>
<path d="M8 14.2223H10.6667V16.889H8V14.2223Z" fill="#DD2E44"/>
<path d="M10.6667 14.2222C12.1394 14.2222 13.3333 13.6253 13.3333 12.8889C13.3333 12.1525 12.1394 11.5555 10.6667 11.5555C9.19391 11.5555 8 12.1525 8 12.8889C8 13.6253 9.19391 14.2222 10.6667 14.2222Z" fill="#EA596E"/>
<path d="M10.6667 12.8889C12.1394 12.8889 13.3333 12.5904 13.3333 12.2222C13.3333 11.854 12.1394 11.5555 10.6667 11.5555C9.19391 11.5555 8 11.854 8 12.2222C8 12.5904 9.19391 12.8889 10.6667 12.8889Z" fill="#FFAC33"/>
<path d="M6.22217 14.2223H7.11106V20.4445H6.22217V14.2223ZM14.2222 14.2223H15.1111V20.4445H14.2222V14.2223Z" fill="#99AAB5"/>
<path d="M5.33325 19.5556H7.99992V20.4445H5.33325V19.5556ZM13.3333 19.5556H15.9999V20.4445H13.3333V19.5556ZM6.22214 13.3334H7.11103V14.2223H6.22214V13.3334ZM14.2221 13.3334H15.111V14.2223H14.2221V13.3334Z" fill="#66757F"/>
</g>
<defs>
<clipPath id="clip0_1_2059">
<rect width="32" height="32" fill="white"/>
</clipPath>
</defs>
</svg>
