<svg width="32" height="32" viewBox="0 0 32 32" fill="none" xmlns="http://www.w3.org/2000/svg">
<path d="M27.9733 4.02656C26.8133 2.86656 25.1734 2.41323 23.5867 2.81323L10.52 6.07989C8.32002 6.62656 6.62668 8.33323 6.08002 10.5199L2.81335 23.5999C2.41335 25.1866 2.86668 26.8266 4.02668 27.9866C4.90668 28.8532 6.06668 29.3332 7.26668 29.3332C7.64002 29.3332 8.02668 29.2932 8.40002 29.1866L21.48 25.9199C23.6667 25.3732 25.3733 23.6799 25.92 21.4799L29.1867 8.39989C29.5867 6.81323 29.1333 5.17323 27.9733 4.02656ZM16 21.1732C13.1467 21.1732 10.8267 18.8532 10.8267 15.9999C10.8267 13.1466 13.1467 10.8266 16 10.8266C18.8534 10.8266 21.1734 13.1466 21.1734 15.9999C21.1734 18.8532 18.8534 21.1732 16 21.1732Z" fill="#7E7E7E"/>
</svg>
